#N canvas 359 144 492 593 10;
#X obj 178 235 min;
#X obj 203 235 f;
#X msg 210 194 10000;
#X obj 136 237 f;
#X obj 112 237 max;
#X msg 162 194 -10000;
#X obj 231 394 -;
#X obj 202 395 - 5;
#X obj 178 255 change;
#X obj 178 275 t b b f;
#X obj 231 374 f;
#X obj 112 277 t b f;
#X text 209 144 reset;
#X obj 216 415 /;
#X obj 85 397 *;
#X floatatom 115 550 5 0 0 0 - - -, f 5;
#X text 161 531 output numbers;
#X floatatom 227 257 5 0 0 0 - - -, f 5;
#X obj 112 257 change;
#X obj 115 529 + 5;
#X obj 210 162 bng 15 250 50 0 empty empty empty 17 7 0 10 -262144
-1 -1;
#X obj 85 177 t f f b;
#X floatatom 238 449 5 0 0 0 - - -, f 5;
#X obj 85 373 -;
#X floatatom 61 256 5 0 0 0 - - -, f 5;
#X text 54 41 Auto-calibrating input scaling;
#X text 315 97 output range you want;
#X obj 158 127 loadbang;
#X obj 167 331 loadbang;
#X text 316 87 bottom and top of the;
#X obj 61 101 inlet;
#X text 320 74 \$1 and \$2 are the;
#X obj 223 115 inlet;
#X obj 131 370 \$1;
#X obj 179 356 \$2;
#X text 307 46 \$1 and \$2 are the creation;
#X text 307 57 arguments for this patch;
#X obj 113 571 outlet;
#X connect 0 0 8 0;
#X connect 0 0 17 0;
#X connect 0 0 1 1;
#X connect 1 0 0 1;
#X connect 2 0 1 0;
#X connect 3 0 4 1;
#X connect 4 0 18 0;
#X connect 4 0 3 1;
#X connect 4 0 24 0;
#X connect 5 0 3 0;
#X connect 6 0 13 1;
#X connect 7 0 13 0;
#X connect 8 0 9 0;
#X connect 9 0 33 0;
#X connect 9 1 10 0;
#X connect 9 2 6 1;
#X connect 9 2 23 1;
#X connect 10 0 6 0;
#X connect 11 0 33 0;
#X connect 11 1 10 0;
#X connect 13 0 14 1;
#X connect 13 0 22 0;
#X connect 14 0 19 0;
#X connect 15 0 37 0;
#X connect 18 0 11 0;
#X connect 19 0 15 0;
#X connect 20 0 2 0;
#X connect 20 0 5 0;
#X connect 21 0 23 0;
#X connect 21 1 0 0;
#X connect 21 1 4 0;
#X connect 21 2 3 0;
#X connect 21 2 1 0;
#X connect 23 0 14 0;
#X connect 27 0 20 0;
#X connect 28 0 33 0;
#X connect 28 0 34 0;
#X connect 30 0 21 0;
#X connect 32 0 20 0;
#X connect 33 0 7 0;
#X connect 34 0 7 1;
#X connect 34 0 19 1;
