#N canvas 60 91 607 566 10;
#X text 97 248 gemhead for rgb;
#X text 217 247 and for depth;
#X text 104 329 rgb;
#X msg 27 299 info;
#X obj 16 229 r \$0-prop;
#X obj 89 228 tgl 15 0 empty depthImgOnOff empty 17 7 0 10 -262144
-1 -1 1 1;
#X obj 210 229 tgl 15 0 empty depthImgOnOff empty 17 7 0 10 -262144
-1 -1 1 1;
#X text 156 329 Depth;
#X obj 120 515 s Dimg;
#X obj 80 360 s RGBimg;
#X text 11 280 get serial;
#X obj 161 356 pix_crop 32 0 580 440;
#X obj 90 306 pix_freenect 0 1 1;
#X obj 89 268 gemhead 48;
#X obj 210 267 gemhead 49;
#X msg 306 39 0 \, destroy;
#X msg 273 18 dimen 640 480 \, create \, 1;
#N canvas 493 150 844 360 properties 0;
#X obj 11 67 cnv 15 140 220 empty empty empty 20 12 0 14 -204800 -66577
0;
#X msg 16 251 led \$1;
#X obj 16 132 vradio 15 1 0 6 empty empty empty 0 -8 0 10 -262144 -1
-1 5;
#X floatatom 16 228 5 0 0 0 - - -, f 5;
#X msg 93 251 angle \$1;
#X obj 93 96 vsl 15 128 -30 30 0 0 empty empty empty 0 -9 0 10 -262144
-1 -1 0 1;
#X floatatom 93 232 5 0 0 0 - - -, f 5;
#X msg 105 70 0;
#X text 32 146 GREEN;
#X text 33 130 OFF;
#X text 32 162 RED;
#X text 32 177 YELLOW;
#X text 32 192 BLINK_GR;
#X text 32 206 BLINK_R_Y;
#X obj 166 53 cnv 15 320 120 empty empty empty 20 12 0 14 -4034 -66577
0;
#X obj 177 90 vradio 15 1 0 2 empty empty empty 0 -8 0 10 -262144 -1
-1 1;
#X floatatom 177 125 5 0 0 0 - - -, f 5;
#X obj 242 91 vradio 15 1 0 2 empty empty empty 0 -8 0 10 -262144 -1
-1 1;
#X floatatom 242 126 5 0 0 0 - - -, f 5;
#X msg 177 146 rgb \$1;
#X msg 242 147 depth \$1;
#X text 169 53 activate/deactivate streams;
#X text 171 67 save cpu power by just activating necessary streams!
;
#X obj 494 30 cnv 15 315 120 empty empty empty 20 12 0 14 -232576 -66577
0;
#X obj 497 69 vradio 15 1 0 2 empty empty empty 0 -8 0 10 -262144 -1
-1 0;
#X floatatom 497 104 5 0 0 0 - - -, f 5;
#X msg 497 124 depth_output \$1;
#X text 644 92 b = 0 \, a = 0;
#X text 3 24 properties for pix_freenect;
#X text 515 7 DEPTH OUTPUT;
#X text 188 32 STREAMS;
#X text 13 48 LED \, ANGLE;
#X text 643 79 r->3 msbits \, g ->8 lsbits;
#X text 516 82 Raw YUV (2 bytes) |;
#X text 516 67 Raw RGBA -> 11 bit output in r&g channel;
#X obj 166 213 cnv 15 520 120 empty empty empty 20 12 0 14 -261682
-66577 0;
#X obj 178 236 vradio 15 1 0 3 empty empty empty 0 -8 0 10 -262144
-1 -1 1;
#X floatatom 178 285 5 0 0 0 - - -, f 5;
#X obj 366 247 vradio 15 1 0 2 empty empty empty 0 -8 0 10 -262144
-1 -1 0;
#X floatatom 366 282 5 0 0 0 - - -, f 5;
#X msg 178 306 depth_mode \$1;
#X text 199 264 11bit raw;
#X text 501 33 set depth output colorspace;
#X text 169 216 set output formats;
#X text 199 248 mm aligned to rgb (16 bit);
#X text 199 234 mm unaligned (16 bit);
#X msg 366 303 video_mode \$1;
#X text 386 245 RGB;
#X text 385 261 IR;
#X obj 16 277 s \$0-prop;
#X obj 177 171 s \$0-prop;
#X obj 497 150 s \$0-prop;
#X obj 178 335 s \$0-prop;
#X obj 482 241 vradio 15 1 0 3 empty empty empty 0 -8 0 10 -262144
-1 -1 1;
#X floatatom 482 289 5 0 0 0 - - -, f 5;
#X msg 482 308 resolution \$1;
#X text 502 255 MEDIUM (default);
#X text 479 218 RGB RESOLUTION;
#X text 502 270 HIGH (restart rgb stream!);
#X text 502 240 LOW (not displaying correctly);
#N canvas 1 55 450 300 notes 0;
#X text 22 24 HIGH Resolution IR works just if depth stream is shut
down!!;
#X restore 704 216 pd notes;
#X obj 355 187;
#X msg 356 210 1;
#X obj 93 46 r kinAngle;
#X connect 1 0 49 0;
#X connect 2 0 3 0;
#X connect 3 0 1 0;
#X connect 4 0 49 0;
#X connect 5 0 6 0;
#X connect 6 0 4 0;
#X connect 7 0 5 0;
#X connect 15 0 16 0;
#X connect 16 0 19 0;
#X connect 17 0 18 0;
#X connect 18 0 20 0;
#X connect 19 0 50 0;
#X connect 20 0 50 0;
#X connect 24 0 25 0;
#X connect 25 0 26 0;
#X connect 26 0 51 0;
#X connect 36 0 37 0;
#X connect 37 0 40 0;
#X connect 38 0 39 0;
#X connect 39 0 46 0;
#X connect 40 0 52 0;
#X connect 46 0 52 0;
#X connect 53 0 54 0;
#X connect 54 0 55 0;
#X connect 55 0 52 0;
#X connect 61 0 62 0;
#X connect 62 0 53 0;
#X connect 62 0 36 0;
#X connect 63 0 5 0;
#X restore 211 199 pd properties;
#X msg 464 263 bang;
#X obj 487 146 bng 50 250 50 0 empty empty empty 17 7 0 10 -260097
-1 -1;
#X obj 464 210 t b b;
#X obj 489 235 s zeraPixelCount;
#N canvas -172 251 1189 698 confTest 1;
#X obj 543 -4 inlet;
#X obj 220 32 pix_dump;
#X obj 379 59 spigot;
#X obj 411 32 tgl 15 0 empty empty empty 17 7 0 10 -262144 -1 -1 0
1;
#X obj 175 64 list-drip;
#X obj 192 125 f;
#X obj 225 125 + 1;
#X obj 167 97 t f b;
#X floatatom 231 155 5 0 0 0 - - -, f 5;
#X msg 244 95 0;
#X obj 30 267 expr if ($f1 == 1 && $f2 == 31 \, 1 \, 0) \;;
#X obj 250 73 r zeraPixelCount;
#X obj 237 235 r countPix;
#X obj 514 243 r countPix;
#X obj 532 355 r countPix;
#X obj 528 463 r countPix;
#X obj 32 233 r pixState;
#X obj 222 359 r countPix;
#X obj 17 357 r pixState;
#X obj 217 465 r countPix;
#X obj 28 465 r pixState;
#X obj 213 575 r countPix;
#X obj 8 573 r pixState;
#X obj 316 237 r pixState;
#X obj 312 359 r pixState;
#X obj 311 471 r pixState;
#X obj 32 438 s bangAcc2;
#X obj 31 550 s bangAcc3;
#X obj 26 658 s bangAcc4;
#X obj 310 323 s bangAcc5;
#X obj 314 439 s bangAcc6;
#X obj 309 552 s bangAcc7;
#X obj 32 384 expr if ($f1 == 1 && $f2 == 32 \, 1 \, 0) \;;
#X obj 31 493 expr if ($f1 == 1 && $f2 == 33 \, 1 \, 0) \;;
#X obj 29 600 expr if ($f1 == 1 && $f2 == 44 \, 1 \, 0) \;;
#X obj 308 269 expr if ($f1 == 1 && $f2 == 46 \, 1 \, 0) \;;
#X obj 310 386 expr if ($f1 == 1 && $f2 == 57 \, 1 \, 0) \;;
#X obj 523 574 r countPix;
#X obj 306 582 r pixState;
#X obj 309 495 expr if ($f1 == 1 && $f2 == 58 \, 1 \, 0) \;;
#X obj 304 606 expr if ($f1 == 1 && $f2 == 59 \, 1 \, 0) \;;
#X obj 31 315 s bangAcc1;
#X obj 29 292 sel 1;
#X obj 310 296 sel 1;
#X obj 32 412 sel 1;
#X obj 321 415 sel 1;
#X obj 31 520 sel 1;
#X obj 318 525 sel 1;
#X obj 29 631 sel 1;
#X obj 303 634 sel 1;
#X obj 305 663 s bangAcc8;
#X obj 67 139 > 0;
#X obj 219 10 r zona1;
#X obj 377 86 print ZONA1;
#X obj 111 61 bng 15 250 50 0 empty empty empty 17 7 0 10 -262144 -1
-1;
#X obj 835 51 pix_dump;
#X obj 994 78 spigot;
#X obj 1026 51 tgl 15 0 empty empty empty 17 7 0 10 -262144 -1 -1 0
1;
#X obj 790 83 list-drip;
#X obj 807 144 f;
#X obj 840 144 + 1;
#X obj 782 116 t f b;
#X floatatom 846 174 5 0 0 0 - - -, f 5;
#X msg 859 114 0;
#X obj 865 92 r zeraPixelCount;
#X obj 682 158 > 0;
#X obj 726 80 bng 15 250 50 0 empty empty empty 17 7 0 10 -262144 -1
-1;
#X obj 992 104 print ZONA2;
#X obj 68 168 s Z1_pixState;
#X obj 692 184 s Z2_pixState;
#X obj 187 174 s Z1_countPix;
#X obj 820 196 s Z2_countPix;
#X obj 834 29 r zona2;
#X obj 139 198 print Z1;
#X obj 754 217 print Z2;
#X obj 946 378 pix_texture;
#X obj 945 406 rectangle 4 3;
#X obj 947 285 separator;
#X msg 1063 360 quality 0;
#X obj 407 177 table zona1_list;
#X obj 388 144 tabwrite zona1_list;
#X obj 679 269 tabwrite zona2_list;
#X obj 698 302 table zona2_list;
#X obj 669 414 list-compare;
#X obj 657 362 tabread zona1_list;
#X obj 657 469 tgl 15 0 empty empty empty 17 7 0 10 -262144 -1 -1 1
1;
#X obj 538 113 list-compare;
#X obj 549 151 tgl 15 0 empty empty empty 17 7 0 10 -262144 -1 -1 0
1;
#X floatatom 654 332 5 0 0 0 - - -, f 5;
#X obj 739 386 tabread zona2_list;
#X obj 948 340 translateXYZ 0 0 0;
#X obj 972 215 pix_buffer_read zones;
#X obj 983 143 gemhead;
#X msg 1100 158 0;
#X msg 1132 159 1;
#X connect 1 1 2 0;
#X connect 1 1 4 0;
#X connect 1 1 86 0;
#X connect 2 0 53 0;
#X connect 3 0 2 1;
#X connect 4 0 7 0;
#X connect 5 0 6 0;
#X connect 5 0 8 0;
#X connect 5 0 70 0;
#X connect 5 0 80 1;
#X connect 6 0 5 1;
#X connect 7 0 51 0;
#X connect 7 1 5 0;
#X connect 9 0 5 0;
#X connect 10 0 42 0;
#X connect 11 0 9 0;
#X connect 12 0 10 1;
#X connect 13 0 35 1;
#X connect 14 0 36 1;
#X connect 15 0 39 1;
#X connect 16 0 10 0;
#X connect 17 0 32 1;
#X connect 18 0 32 0;
#X connect 19 0 33 1;
#X connect 20 0 33 0;
#X connect 21 0 34 1;
#X connect 22 0 34 0;
#X connect 23 0 35 0;
#X connect 24 0 36 0;
#X connect 25 0 39 0;
#X connect 32 0 44 0;
#X connect 33 0 46 0;
#X connect 34 0 48 0;
#X connect 35 0 43 0;
#X connect 36 0 45 0;
#X connect 37 0 40 1;
#X connect 38 0 40 0;
#X connect 39 0 47 0;
#X connect 40 0 49 0;
#X connect 42 0 41 0;
#X connect 43 0 29 0;
#X connect 44 0 26 0;
#X connect 45 0 30 0;
#X connect 46 0 27 0;
#X connect 48 0 28 0;
#X connect 51 0 68 0;
#X connect 51 0 80 0;
#X connect 52 0 1 0;
#X connect 54 0 1 0;
#X connect 55 1 56 0;
#X connect 55 1 58 0;
#X connect 55 1 86 1;
#X connect 56 0 67 0;
#X connect 57 0 56 1;
#X connect 58 0 61 0;
#X connect 59 0 60 0;
#X connect 59 0 62 0;
#X connect 59 0 71 0;
#X connect 59 0 81 1;
#X connect 60 0 59 1;
#X connect 61 0 65 0;
#X connect 61 1 59 0;
#X connect 63 0 59 0;
#X connect 64 0 63 0;
#X connect 65 0 69 0;
#X connect 65 0 81 0;
#X connect 66 0 55 0;
#X connect 72 0 55 0;
#X connect 75 0 76 0;
#X connect 77 0 90 0;
#X connect 78 0 75 0;
#X connect 83 0 85 0;
#X connect 84 0 83 0;
#X connect 86 0 87 0;
#X connect 88 0 84 0;
#X connect 88 0 89 0;
#X connect 89 0 83 1;
#X connect 90 0 75 0;
#X connect 92 0 91 0;
#X connect 93 0 91 1;
#X connect 94 0 91 1;
#X restore 449 287 pd confTest;
#X obj 470 98 tgl 15 0 empty empty empty 17 7 0 10 -262144 -1 -1 0
1;
#X obj 468 117 metro 200;
#N canvas 898 215 382 385 show_bangs 0;
#X obj 63 22 r bangAcc1;
#X obj 63 51 bng 50 250 50 0 empty empty empty 17 7 0 10 -4034 -1 -1
;
#X obj 145 55 bng 50 250 50 0 empty empty empty 17 7 0 10 -4034 -1
-1;
#X obj 230 56 bng 50 250 50 0 empty empty empty 17 7 0 10 -4034 -1
-1;
#X obj 231 282 bng 50 250 50 0 empty empty empty 17 7 0 10 -4034 -1
-1;
#X obj 50 159 bng 50 250 50 0 empty empty empty 17 7 0 10 -4034 -1
-1;
#X obj 51 275 bng 50 250 50 0 empty empty empty 17 7 0 10 -4034 -1
-1;
#X obj 230 165 bng 50 250 50 0 empty empty empty 17 7 0 10 -4034 -1
-1;
#X obj 143 283 bng 50 250 50 0 empty empty empty 17 7 0 10 -4034 -1
-1;
#X obj 145 26 r bangAcc2;
#X obj 230 27 r bangAcc3;
#X obj 50 130 r bangAcc4;
#X obj 230 136 r bangAcc5;
#X obj 53 247 r bangAcc6;
#X obj 143 254 r bangAcc7;
#X obj 231 253 r bangAcc8;
#X text 29 347 visualiza bangs para enviar aos patch dos leds;
#X connect 0 0 1 0;
#X connect 9 0 2 0;
#X connect 10 0 3 0;
#X connect 11 0 5 0;
#X connect 12 0 7 0;
#X connect 13 0 6 0;
#X connect 14 0 8 0;
#X connect 15 0 4 0;
#X restore 265 95 pd show_bangs;
#N canvas 338 67 876 639 2leds 0;
#X obj 35 18 r bangAcc1;
#X obj 191 20 r bangAcc2;
#X obj 377 20 r bangAcc3;
#X obj 38 197 r bangAcc4;
#X obj 488 205 r bangAcc5;
#X obj 159 632 comport 2 115200;
#X msg 140 550 devices;
#X msg 58 61 print 0L0R255G0B;
#X obj 104 495;
#X obj 104 520 t b b;
#X msg 219 73 print 1L0R200G20B;
#X obj 178 519 bng 15 250 50 0 empty empty empty 17 7 0 10 -262144
-1 -1;
#X msg 83 549 open 32;
#X msg 402 82 print 2L85R255G255B;
#X obj 43 329 r bangAcc6;
#X obj 212 335 r bangAcc7;
#X obj 375 339 r bangAcc8;
#X obj 223 544 r ledInfo;
#X obj 401 488 s ledInfo;
#X obj 213 478 s ledInfo;
#X obj 208 163 s ledInfo;
#X obj 351 161 s ledInfo;
#X obj 55 164 s ledInfo;
#X obj 39 293 s ledInfo;
#X obj 500 327 s ledInfo;
#X obj 48 465 s ledInfo;
#X msg 305 530 close;
#X msg 244 575 ports;
#X msg 289 585 devicename /dev/ttyUSB0;
#X obj 153 675 print;
#X obj 160 654 spigot;
#X obj 220 664 tgl 15 0 empty empty empty 17 7 0 10 -262144 -1 -1 0
1;
#X msg 87 257 print 3L0R255G0B;
#X msg 492 274 print 4L85R255G255B;
#X msg 79 400 print 5L0R255G0B;
#X msg 247 408 print 6L0R200G20B;
#X msg 469 435 print 7L85R255G255B;
#X obj 31 40 t b b;
#X obj 31 82 delay 2000;
#X obj 192 44 t b b;
#X obj 186 100 delay 2000;
#X msg 31 125 print 0L0R0G0B;
#X obj 257 51 bng 15 250 50 0 empty empty empty 17 7 0 10 -262144 -1
-1;
#X msg 180 125 print 1L0R0G0B;
#X obj 377 47 t b b;
#X obj 359 105 delay 2000;
#X obj 37 219 t b b;
#X obj -5 241 delay 2000;
#X msg -11 266 print 3L0R0G0B;
#X msg 353 130 print 2L0R0G0B;
#X obj 489 230 t b b;
#X obj 389 259 delay 2000;
#X msg 383 284 print 4L0R0G0B;
#X obj 44 361 t b b;
#X obj 2 398 delay 2000;
#X obj 212 362 t b b;
#X obj 163 417 delay 2000;
#X msg 157 442 print 6L0R0G0B;
#X msg -4 423 print 5L0R0G0B;
#X obj 380 375 t b b;
#X obj 441 382 bng 15 250 50 0 empty empty empty 17 7 0 10 -262144
-1 -1;
#X obj 362 417 delay 2000;
#X msg 356 442 print 7L0R0G0B;
#X obj 640 222 s ledInfo;
#X msg 635 138 print 1000L0R0G0B;
#X text 642 111 apaga todos;
#X obj 684 556 print;
#X floatatom 655 441 5 0 0 0 - - -, f 5;
#X symbolatom 744 443 10 0 0 0 - - -, f 10;
#X obj 717 365 makefilename;
#X msg 676 520 print \$1L\$2R\$3G\$4B;
#X msg 703 428 1 2 3 4;
#X msg 662 397 45 \$1 \$1 \$1;
#X connect 0 0 37 0;
#X connect 1 0 39 0;
#X connect 2 0 44 0;
#X connect 3 0 46 0;
#X connect 4 0 50 0;
#X connect 5 0 30 0;
#X connect 6 0 5 0;
#X connect 8 0 9 0;
#X connect 9 0 12 0;
#X connect 9 1 6 0;
#X connect 11 0 9 0;
#X connect 12 0 5 0;
#X connect 14 0 53 0;
#X connect 15 0 55 0;
#X connect 16 0 59 0;
#X connect 17 0 5 0;
#X connect 27 0 5 0;
#X connect 28 0 5 0;
#X connect 30 0 29 0;
#X connect 31 0 30 1;
#X connect 32 0 23 0;
#X connect 33 0 24 0;
#X connect 34 0 25 0;
#X connect 35 0 19 0;
#X connect 36 0 18 0;
#X connect 37 0 38 0;
#X connect 37 1 7 0;
#X connect 38 0 41 0;
#X connect 39 0 40 0;
#X connect 39 1 10 0;
#X connect 40 0 43 0;
#X connect 41 0 22 0;
#X connect 42 0 39 0;
#X connect 43 0 20 0;
#X connect 44 0 45 0;
#X connect 44 1 13 0;
#X connect 45 0 49 0;
#X connect 46 0 47 0;
#X connect 46 1 32 0;
#X connect 47 0 48 0;
#X connect 48 0 23 0;
#X connect 49 0 21 0;
#X connect 50 0 51 0;
#X connect 50 1 33 0;
#X connect 51 0 52 0;
#X connect 52 0 24 0;
#X connect 53 0 54 0;
#X connect 53 1 34 0;
#X connect 54 0 58 0;
#X connect 55 0 56 0;
#X connect 55 1 35 0;
#X connect 56 0 57 0;
#X connect 57 0 19 0;
#X connect 58 0 25 0;
#X connect 59 0 61 0;
#X connect 59 1 36 0;
#X connect 61 0 62 0;
#X connect 62 0 18 0;
#X connect 64 0 63 0;
#X connect 67 0 70 0;
#X connect 68 0 70 0;
#X connect 70 0 66 0;
#X connect 71 0 70 0;
#X restore 265 117 pd 2leds;
#X obj 118 490 pix_depth2rgba 5000;
#X obj 166 417 tgl 15 0 empty empty mode 17 7 0 10 -262144 -1 -1 0
1;
#X obj 209 468 nbx 5 14 -1e+37 1e+37 0 0 empty empty hi_thresh 0 -8
0 10 -262144 -1 -1 0 256;
#X obj 273 466 nbx 5 14 -1e+37 1e+37 0 0 empty empty lo_thresh 0 -8
0 10 -262144 -1 -1 0 256;
#N canvas 741 511 569 230 thresholds 0;
#X obj 69 177 outlet;
#X msg 31 63 lo_thresh \$1;
#X msg 104 123 hi_thresh \$1;
#X floatatom 31 46 5 0 0 0 - - -, f 5;
#X floatatom 104 106 5 0 0 0 - - -, f 5;
#X text 102 18 low threshold default to 10.1;
#X obj 104 85 r hi_thresh;
#X text 161 158 .this normalizes the color gradient from lo_thresh
to hi_thresh;
#X text 162 186 .pixel which are out of bounds are zeroes;
#X text 106 33 same as fourth inlet \, set by 2nd arg;
#X text 186 111 hi threshold same as third inlet \, set by 1st arg
\, default 8000;
#X obj 29 22 r lo_thresh;
#X connect 1 0 0 0;
#X connect 2 0 0 0;
#X connect 3 0 1 0;
#X connect 4 0 2 0;
#X connect 6 0 4 0;
#X connect 11 0 3 0;
#X restore 33 414 pd thresholds;
#X obj 27 23 vsl 30 128 0 10000 0 0 lo_thresh empty lo_thresh 0 -9
0 10 -203904 -1 -1 0 1;
#X obj 95 24 vsl 30 128 0 10000 0 0 hi_thresh empty hi_thresh 0 -9
0 10 -261234 -1 -1 1500 1;
#X text 214 409 0: 11 bit raw kinect;
#X text 213 423 1 (default): 16 bit mm depth;
#N canvas 438 243 450 453 checkVal 0;
#X obj 74 318 pix_data;
#X obj 50 363 unpack 0 0 0;
#X floatatom 112 387 5 0 0 0 - - -, f 5;
#X floatatom 81 386 5 0 0 0 - - -, f 5;
#X floatatom 50 386 5 0 0 0 - - -, f 5;
#X text 154 328 gray-value;
#X text 61 346 color-list;
#X obj 277 326 translateXYZ;
#X obj 277 351 circle 0.1;
#X floatatom 363 320 5 0 0 0 - - -, f 5;
#X floatatom 404 317 5 0 0 0 - - -, f 5;
#X obj 282 210 gemhead 51;
#X obj 305 263 * 6;
#X obj 308 286 - 1;
#X obj 344 106 tgl 50 0 empty empty empty 17 7 0 10 -257985 -1 -1 0
1;
#X obj 73 52 s x-pos;
#X obj 229 170 s y-pos;
#X obj 153 242 r y-pos;
#X obj 98 222 r x-pos;
#X obj 376 237 r y-pos;
#X obj 310 235 r x-pos;
#X obj 146 345 nbx 5 20 -1e+37 1e+37 0 0 empty empty empty 0 -8 0 14
-262144 -1 -1 0 256;
#X floatatom 35 24 5 0 0 0 - - -, f 5;
#X obj 229 29 vsl 15 128 0 1 0 0 empty empty empty 0 -9 0 10 -262144
-1 -1 0 1;
#X obj 76 26 hsl 128 15 0 1 0 0 empty empty empty -2 -8 0 10 -262144
-1 -1 0 1;
#X floatatom 256 144 5 0 0 0 - - -, f 5;
#X obj 11 385 print;
#X obj 362 268 * 4;
#X obj 280 397 circle 0.05;
#X obj 279 376 color 1 1 0;
#X obj 98 249 t b f;
#X obj 148 270 t b f;
#X obj 342 22 inlet;
#X obj 150 419 outlet;
#X obj 344 84 r ON;
#X obj 14 228 r ON;
#X obj 342 46 s ON;
#X obj 15 258 metro 200;
#X obj 61 176 r Dimg2analize;
#X connect 0 0 26 0;
#X connect 0 1 1 0;
#X connect 0 2 21 0;
#X connect 1 0 4 0;
#X connect 1 1 3 0;
#X connect 1 2 2 0;
#X connect 7 0 8 0;
#X connect 8 0 29 0;
#X connect 11 0 7 0;
#X connect 12 0 13 0;
#X connect 13 0 9 0;
#X connect 13 0 7 1;
#X connect 14 0 11 0;
#X connect 17 0 31 0;
#X connect 18 0 30 0;
#X connect 19 0 27 0;
#X connect 20 0 12 0;
#X connect 21 0 33 0;
#X connect 23 0 16 0;
#X connect 23 0 25 0;
#X connect 24 0 15 0;
#X connect 24 0 22 0;
#X connect 27 0 7 2;
#X connect 27 0 10 0;
#X connect 29 0 28 0;
#X connect 30 0 0 0;
#X connect 30 1 0 2;
#X connect 31 0 0 0;
#X connect 31 1 0 3;
#X connect 32 0 36 0;
#X connect 34 0 14 0;
#X connect 35 0 37 0;
#X connect 37 0 0 0;
#X connect 38 0 0 1;
#X restore 361 95 pd checkVal;
#X obj 170 26 vsl 15 128 -30 30 0 0 kinAngle empty angle 0 -9 0 10
-262144 -1 -1 0 1;
#X msg 193 26 0;
#X obj 116 197 s \$0-prop;
#X text 369 122 gray-value;
#X obj 361 139 nbx 5 20 -1e+37 1e+37 0 0 empty empty empty 0 -8 0 14
-262144 -1 -1 0 256;
#X obj 361 73 tgl 15 1 empty empty empty 17 7 0 10 -262144 -1 -1 0
1;
#N canvas 1 54 450 300 NOTES 0;
#X text 42 27 conf1: ha gente a volta da arvore \, pelo menos um 0
a volta \; conf2 ha gente distante \; conf3 não ha gente \, depois
de um 5min ha piscanso;
#X restore 436 19 pd NOTES;
#X floatatom 120 165 5 0 0 0 - - -, f 5;
#N canvas -115 199 1159 505 ctrlImgs 1;
#X obj 719 17 r RGBimg;
#X obj 723 129 pix_texture;
#X floatatom 784 75 5 0 0 0 - - -, f 5;
#X floatatom 831 79 5 0 0 0 - - -, f 5;
#X obj 723 160 rectangle 3 2;
#X obj 64 436 pix_texture;
#X floatatom 174 29 5 0 0 0 - - -, f 5;
#X floatatom 220 29 5 0 0 0 - - -, f 5;
#X obj 65 462 rectangle 3 2;
#X obj 115 28 r Dimg;
#X obj 112 94 pix_resize 13 7;
#X msg 22 85 quality 0;
#X obj 725 107 translateXYZ -2 -2 0;
#X obj 115 61 translateXYZ 2 2 0;
#X obj 168 332 hradio 15 1 0 3 empty empty empty 0 -8 0 10 -262144
-1 -1 2;
#X obj 320 118 pix_image;
#X obj 314 80 gemhead;
#X obj 286 176 pix_resize 13 7;
#X obj 668 18 r Dimg;
#X obj 710 75 separator;
#X obj 594 190 cnv 15 550 300 empty empty empty 20 12 0 14 -233017
-66577 0;
#X obj 866 362 bng 15 250 50 0 empty empty empty 17 7 0 10 -262144
-1 -1;
#X text 885 361 WRITE! one file;
#X obj 836 241 gemhead 55;
#X obj 606 270 s depthImgOnOff;
#X obj 606 245 tgl 15 0 empty empty empty 17 7 0 10 -262144 -1 -1 1
1;
#X obj 730 256 gemhead;
#X obj 689 345 circle 2;
#X obj 689 447 circle 1;
#X obj 689 385 color 0 0 0;
#X msg 863 273 file zone1 99;
#X obj 744 200 tgl 15 1 empty empty empty 17 7 0 10 -262144 -1 -1 0
1;
#X obj 657 221 == 0;
#X floatatom 758 321 5 0 0 0 - - -, f 5;
#X floatatom 754 426 5 0 0 0 - - -, f 5;
#X text 782 194 criar as imagens das zonas \, para utilizar como template
contra a imagem da profundidade resized;
#X obj 786 18 hradio 15 1 0 2 empty empty empty 0 -8 0 10 -262144 -1
-1 0;
#X obj 714 50 mux . .;
#X text 832 16 escolhe se visualizar;
#X text 833 29 a Depth ou RGB image;
#X msg 871 302 file zone2 99;
#X obj 836 429 pix_write 0 0 640 480;
#X obj 509 115 pix_image;
#X obj 503 77 gemhead;
#X obj 485 178 pix_resize 13 7;
#X obj 93 357 mux . . .;
#X obj 112 208 s allZones;
#X obj 206 171 r allZones;
#X obj 388 183 r allZones;
#X obj 267 290 s zona1;
#X obj 414 291 s zona2;
#X obj 84 242 r allZones;
#X msg 558 86 open zone200000.jpg;
#X msg 369 89 open zone100000.jpg;
#X obj 107 283 r zona1;
#X obj 143 308 r zona2;
#X obj 296 143 pix_separator;
#X obj 491 149 pix_separator;
#X obj 26 30 loadbang;
#X obj 235 247 pix_mask;
#X obj 423 249 pix_mask;
#X obj 112 128 pix_gray;
#X obj 285 214 pix_gray;
#X obj 478 208 pix_gray;
#X obj 113 154 pix_rgba;
#X obj 112 183 alpha;
#X obj 83 394 spigot;
#X obj 137 399 tgl 15 0 empty empty empty 17 7 0 10 -262144 -1 -1 0
1;
#X obj 354 403 pix_buffer zones 2;
#X obj 222 305 t a b;
#X obj 450 315 t a b;
#X msg 292 338 0;
#X msg 492 338 1;
#X obj 235 366 pix_buffer_write zones;
#X obj 437 364 pix_buffer_write zones;
#X connect 0 0 37 1;
#X connect 1 0 4 0;
#X connect 2 0 12 1;
#X connect 3 0 12 2;
#X connect 5 0 8 0;
#X connect 6 0 13 1;
#X connect 7 0 13 2;
#X connect 9 0 13 0;
#X connect 10 0 61 0;
#X connect 11 0 5 0;
#X connect 12 0 1 0;
#X connect 13 0 10 0;
#X connect 14 0 45 3;
#X connect 15 0 56 0;
#X connect 16 0 15 0;
#X connect 17 0 62 0;
#X connect 18 0 37 0;
#X connect 21 0 41 0;
#X connect 23 0 41 0;
#X connect 25 0 24 0;
#X connect 26 0 27 0;
#X connect 27 0 29 0;
#X connect 29 0 28 0;
#X connect 30 0 41 0;
#X connect 31 0 32 0;
#X connect 31 0 23 0;
#X connect 31 0 26 0;
#X connect 32 0 25 0;
#X connect 33 0 27 1;
#X connect 34 0 28 1;
#X connect 36 0 37 2;
#X connect 37 0 19 0;
#X connect 40 0 41 0;
#X connect 42 0 57 0;
#X connect 43 0 42 0;
#X connect 44 0 63 0;
#X connect 45 0 66 0;
#X connect 47 0 59 0;
#X connect 48 0 60 0;
#X connect 51 0 45 0;
#X connect 52 0 42 0;
#X connect 53 0 15 0;
#X connect 54 0 45 1;
#X connect 55 0 45 2;
#X connect 56 0 17 0;
#X connect 57 0 44 0;
#X connect 58 0 11 0;
#X connect 59 0 49 0;
#X connect 60 0 50 0;
#X connect 61 0 64 0;
#X connect 62 0 59 1;
#X connect 63 0 60 1;
#X connect 64 0 65 0;
#X connect 65 0 46 0;
#X connect 66 0 5 0;
#X connect 67 0 66 1;
#X connect 69 0 73 0;
#X connect 69 1 71 0;
#X connect 70 0 74 0;
#X connect 70 1 72 0;
#X connect 71 0 73 1;
#X connect 72 0 74 1;
#X restore 265 141 pd ctrlImgs;
#X obj 294 60 gemwin 10;
#X connect 3 0 12 0;
#X connect 4 0 12 0;
#X connect 5 0 13 0;
#X connect 6 0 14 0;
#X connect 11 0 27 0;
#X connect 12 0 9 0;
#X connect 12 1 11 0;
#X connect 13 0 12 0;
#X connect 14 0 12 1;
#X connect 15 0 46 0;
#X connect 16 0 46 0;
#X connect 18 0 22 0;
#X connect 19 0 20 0;
#X connect 20 0 18 0;
#X connect 20 1 21 0;
#X connect 23 0 24 0;
#X connect 24 0 20 0;
#X connect 27 0 8 0;
#X connect 28 0 27 1;
#X connect 29 0 27 2;
#X connect 30 0 27 3;
#X connect 31 0 27 0;
#X connect 33 0 44 0;
#X connect 36 0 41 0;
#X connect 38 0 37 0;
#X connect 42 0 36 0;
