#N canvas 168 184 1125 608 10;
#X obj 150 249 pix_image;
#X obj 581 248 pix_image;
#X msg 428 206 open zone200000.jpg;
#X msg 294 209 open zone100000.jpg;
#X obj 378 168 loadbang;
#X obj 15 54 pix_video;
#X obj 589 118 gemwin;
#X msg 591 44 dimen 640 480 \, create \, 1;
#X obj 151 509 pix_texture;
#X obj 153 442 translateXYZ 2 2 0;
#X obj 150 540 rectangle 3 2;
#X obj 525 525 pix_texture;
#X obj 525 548 rectangle 3 2;
#X obj 526 485 translateXYZ -2 -2 0;
#X floatatom 234 383 5 0 0 0 - - -, f 5;
#X floatatom 249 405 5 0 0 0 - - -, f 5;
#X msg 619 94 0 \, destroy;
#X obj 584 195 tgl 15 0 empty empty empty 17 7 0 10 -262144 -1 -1 0
1;
#X obj 150 189 tgl 15 0 empty empty empty 17 7 0 10 -262144 -1 -1 0
1;
#X floatatom 584 454 5 0 0 0 - - -, f 5;
#X floatatom 629 460 5 0 0 0 - - -, f 5;
#X obj 68 360 pix_mask;
#X obj 22 140 s vid;
#X obj 60 234 r vid;
#X obj 59 298 alpha;
#X obj 521 385 pix_mask;
#X obj 511 266 r vid;
#X obj 515 331 alpha;
#X obj 526 437 separator;
#X obj 14 24 gemhead;
#X obj 150 212 gemhead;
#X obj 581 221 gemhead;
#X msg 331 466 quality 0;
#X msg 222 114 dimen \$1 \$2;
#X floatatom 216 41 5 0 0 0 - - -, f 5;
#X floatatom 284 41 5 0 0 0 - - -, f 5;
#X obj 224 89 pack f f;
#X obj 268 63 t b f;
#X obj 220 137 s dim;
#X obj 64 78 r dim;
#X obj 183 273 r dim;
#X obj 627 280 r dim;
#X obj 59 387 t a a;
#X obj 17 520 s zone1;
#X obj 513 411 t a a;
#X obj 456 467 s zone2;
#X obj 771 101 r zone1;
#X obj 771 164 pix_dump;
#X obj 787 203 print Z1;
#X msg 734 126 bang;
#X obj 901 164 pix_dump;
#X msg 864 126 bang;
#X obj 901 101 r zone2;
#X obj 917 203 print Z2;
#X obj 857 69 bng 15 250 50 0 empty empty empty 17 7 0 10 -262144 -1
-1;
#X obj 1019 169 pix_dump;
#X msg 982 131 bang;
#X obj 1019 106 r vid;
#X obj 1035 208 print VID;
#X obj 461 438 pix_rgba;
#X obj 18 109 pix_resize 13 7;
#X obj 149 296 pix_resize 13 7;
#X obj 581 303 pix_resize 13 7;
#X obj 799 360 pix_write;
#X msg 820 325 file www 99;
#X obj 832 293 bng 15 250 50 0 empty empty empty 17 7 0 10 -262144
-1 -1;
#X obj 941 349 pix_image;
#X msg 982 301 open www00000.jpg;
#X obj 940 383 pix_texture;
#X obj 940 406 rectangle 3 2;
#X obj 929 267 gemhead 51;
#X obj 950 446 pix_resize 13 7;
#X obj 957 478 pix_dump;
#X obj 960 509 print www;
#X obj 891 461 bng 15 250 50 0 empty empty empty 17 7 0 10 -262144
-1 -1;
#X obj 1040 499 list length;
#X floatatom 1048 522 5 0 0 0 - - -, f 5;
#X obj 1053 550 / 4;
#X floatatom 1057 575 5 0 0 0 - - -, f 5;
#X obj 923 238 tgl 15 0 empty empty empty 17 7 0 10 -262144 -1 -1 0
1;
#X obj 21 487 pix_threshold;
#X msg 64 454 1 1 1 \$1;
#X msg 75 422 0.5;
#X obj 782 493 pix_data;
#X floatatom 805 519 5 0 0 0 - - -, f 5;
#X obj 778 553 unpack 0 0 0;
#X floatatom 883 576 5 0 0 0 - - -, f 5;
#X floatatom 829 576 5 0 0 0 - - -, f 5;
#X floatatom 778 576 5 0 0 0 - - -, f 5;
#X text 859 518 gray-value;
#X text 789 536 color-list;
#X floatatom 811 444 5 0 0 0 - - -, f 5;
#X floatatom 849 446 5 0 0 0 - - -, f 5;
#X msg 754 422 bang;
#X connect 0 0 61 0;
#X connect 1 0 62 0;
#X connect 2 0 1 0;
#X connect 3 0 0 0;
#X connect 4 0 3 0;
#X connect 4 0 2 0;
#X connect 4 0 32 0;
#X connect 5 0 60 0;
#X connect 7 0 6 0;
#X connect 8 0 10 0;
#X connect 9 0 8 0;
#X connect 11 0 12 0;
#X connect 13 0 11 0;
#X connect 14 0 9 1;
#X connect 15 0 9 2;
#X connect 16 0 6 0;
#X connect 17 0 31 0;
#X connect 18 0 30 0;
#X connect 19 0 13 1;
#X connect 20 0 13 2;
#X connect 21 0 42 0;
#X connect 23 0 24 0;
#X connect 24 0 21 0;
#X connect 25 0 44 0;
#X connect 26 0 27 0;
#X connect 27 0 25 0;
#X connect 28 0 13 0;
#X connect 29 0 5 0;
#X connect 30 0 0 0;
#X connect 31 0 1 0;
#X connect 32 0 11 0;
#X connect 32 0 8 0;
#X connect 33 0 38 0;
#X connect 34 0 36 0;
#X connect 35 0 37 0;
#X connect 36 0 33 0;
#X connect 37 0 36 0;
#X connect 37 1 36 1;
#X connect 39 0 60 0;
#X connect 40 0 61 0;
#X connect 41 0 62 0;
#X connect 42 0 43 0;
#X connect 42 1 9 0;
#X connect 44 0 59 0;
#X connect 44 1 28 0;
#X connect 46 0 47 0;
#X connect 46 0 63 0;
#X connect 46 0 83 1;
#X connect 47 1 48 0;
#X connect 49 0 47 0;
#X connect 50 1 53 0;
#X connect 51 0 50 0;
#X connect 52 0 50 0;
#X connect 54 0 51 0;
#X connect 54 0 49 0;
#X connect 54 0 56 0;
#X connect 55 1 58 0;
#X connect 56 0 55 0;
#X connect 57 0 55 0;
#X connect 59 0 45 0;
#X connect 60 0 22 0;
#X connect 61 0 21 1;
#X connect 62 0 25 1;
#X connect 64 0 63 0;
#X connect 65 0 63 0;
#X connect 66 0 68 0;
#X connect 67 0 66 0;
#X connect 68 0 69 0;
#X connect 69 0 71 0;
#X connect 70 0 66 0;
#X connect 71 0 72 0;
#X connect 72 1 73 0;
#X connect 74 0 72 0;
#X connect 75 0 76 0;
#X connect 76 0 77 0;
#X connect 77 0 78 0;
#X connect 79 0 70 0;
#X connect 81 0 80 2;
#X connect 82 0 81 0;
#X connect 83 1 85 0;
#X connect 83 2 84 0;
#X connect 85 0 88 0;
#X connect 85 1 87 0;
#X connect 85 2 86 0;
#X connect 91 0 83 2;
#X connect 92 0 83 3;
#X connect 93 0 83 0;
