#N canvas 1 56 793 555 10;
#X obj 177 206 pix_image;
#X obj 581 208 pix_image;
#X msg 428 166 open zone200000.jpg;
#X msg 294 169 open zone100000.jpg;
#X obj 378 128 loadbang;
#X obj 15 14 pix_video;
#X obj 589 78 gemwin;
#X msg 591 4 dimen 640 480 \, create \, 1;
#X obj 68 474 pix_texture;
#X obj 70 407 translateXYZ 2 2 0;
#X obj 67 505 rectangle 3 2;
#X obj 525 485 pix_texture;
#X obj 525 508 rectangle 3 2;
#X obj 526 445 translateXYZ -2 -2 0;
#X floatatom 151 348 5 0 0 0 - - -, f 5;
#X floatatom 166 370 5 0 0 0 - - -, f 5;
#X msg 619 54 0 \, destroy;
#X obj 584 155 tgl 15 0 empty empty empty 17 7 0 10 -262144 -1 -1 0
1;
#X obj 173 136 tgl 15 0 empty empty empty 17 7 0 10 -262144 -1 -1 0
1;
#X obj 18 69 pix_resize 320 240;
#X obj 149 256 pix_resize 320 240;
#X obj 586 263 pix_resize 320 240;
#X floatatom 584 414 5 0 0 0 - - -, f 5;
#X floatatom 629 420 5 0 0 0 - - -, f 5;
#X obj 69 336 pix_mask;
#X obj 22 100 s vid;
#X obj 62 251 r vid;
#X obj 63 282 alpha;
#X obj 521 345 pix_mask;
#X obj 514 261 r vid;
#X obj 515 291 alpha;
#X obj 526 382 separator;
#X obj 14 -16 gemhead;
#X obj 173 159 gemhead;
#X obj 581 181 gemhead;
#X msg 394 426 quality 0;
#X msg 222 74 dimen \$1 \$2;
#X floatatom 216 1 5 0 0 0 - - -, f 5;
#X floatatom 284 1 5 0 0 0 - - -, f 5;
#X obj 224 49 pack f f;
#X obj 268 23 t b f;
#X obj 220 97 s dim;
#X obj 64 38 r dim;
#X obj 183 233 r dim;
#X obj 627 240 r dim;
#X connect 0 0 20 0;
#X connect 1 0 21 0;
#X connect 2 0 1 0;
#X connect 3 0 0 0;
#X connect 4 0 3 0;
#X connect 4 0 2 0;
#X connect 4 0 35 0;
#X connect 5 0 19 0;
#X connect 7 0 6 0;
#X connect 8 0 10 0;
#X connect 9 0 8 0;
#X connect 11 0 12 0;
#X connect 13 0 11 0;
#X connect 14 0 9 1;
#X connect 15 0 9 2;
#X connect 16 0 6 0;
#X connect 17 0 34 0;
#X connect 18 0 33 0;
#X connect 19 0 25 0;
#X connect 20 0 24 1;
#X connect 21 0 28 1;
#X connect 22 0 13 1;
#X connect 23 0 13 2;
#X connect 24 0 9 0;
#X connect 26 0 27 0;
#X connect 27 0 24 0;
#X connect 28 0 31 0;
#X connect 29 0 30 0;
#X connect 30 0 28 0;
#X connect 31 0 13 0;
#X connect 32 0 5 0;
#X connect 33 0 0 0;
#X connect 34 0 1 0;
#X connect 35 0 11 0;
#X connect 35 0 8 0;
#X connect 36 0 41 0;
#X connect 37 0 39 0;
#X connect 38 0 40 0;
#X connect 39 0 36 0;
#X connect 40 0 39 0;
#X connect 40 1 39 1;
#X connect 42 0 19 0;
#X connect 43 0 20 0;
#X connect 44 0 21 0;
