#N canvas 1 412 793 622 10;
#X obj 15 87 pix_video;
#X obj 591 54 gemwin;
#X msg 591 4 dimen 640 480 \, create \, 1;
#X obj 30 472 pix_texture;
#X msg 621 30 0 \, destroy;
#X obj 26 306 pix_mask;
#X obj 24 212 alpha;
#X obj 14 4 gemhead;
#X msg 41 135 dimen \$1 \$2;
#X floatatom 219 13 5 0 0 0 - - -, f 5;
#X floatatom 287 13 5 0 0 0 - - -, f 5;
#X obj 227 61 pack f f;
#X obj 271 35 t b f;
#X obj 149 328 pix_data;
#X obj 11 164 pix_resize 13 7;
#X obj 29 503 rectangle 5 4;
#X obj 29 384 t a a;
#X obj 167 406 unpack f f f f;
#X obj 27 355 pix_gray;
#X floatatom 170 436 5 0 0 0 - - -, f 5;
#X floatatom 210 438 5 0 0 0 - - -, f 5;
#X floatatom 256 440 5 0 0 0 - - -, f 5;
#X floatatom 130 436 5 0 0 0 - - -, f 5;
#X obj 188 268 t b f;
#X obj 141 266 t b f;
#X obj 453 181 s X;
#X obj 525 181 s Y;
#X obj 449 118 hsl 128 15 0 1 0 0 empty empty empty -2 -8 0 10 -262144
-1 -1 11300 1;
#X obj 591 123 vsl 15 128 1 0 0 0 empty empty empty 0 -9 0 10 -262144
-1 -1 12700 1;
#X obj 153 236 r X;
#X obj 189 235 r Y;
#X obj 162 368 rgb2hsv;
#X obj 236 466 s V;
#N canvas 1 68 524 456 distFromTree 1;
#X obj 75 24 r X;
#X obj 362 23 r Y;
#X floatatom 18 126 5 0 0 0 - - -, f 5;
#X obj 216 420 s distFromTree;
#X obj 75 93 expr sqrt( ($f1 - 0.5)*($f1 - 0.5) + ($f2 - 0.5)*($f2
- 0.5) ), f 64;
#X obj 362 49 t b f;
#X obj 176 26 r R;
#X obj 176 48 b;
#X obj 75 127 t f f f;
#X obj 176 172 > 0.05;
#X obj 217 143 r R-arvore;
#X obj 141 231 > 0.3;
#X obj 207 206 r R-zona1;
#X obj 30 237 > 0.6;
#X obj 31 265 tgl 15 0 empty empty empty 17 7 0 10 -262144 -1 -1 0
1;
#X obj 151 264 tgl 15 0 empty empty empty 17 7 0 10 -262144 -1 -1 1
1;
#X obj 232 377 pack f f f;
#X floatatom 213 235 5 0 0 0 - - -, f 5;
#X obj 71 214 r R-zona2;
#X obj 262 310 tgl 15 0 empty empty empty 17 7 0 10 -262144 -1 -1 1
1;
#X text -1 93 Distance \; from Center;
#X connect 0 0 4 0;
#X connect 1 0 5 0;
#X connect 4 0 2 0;
#X connect 4 0 8 0;
#X connect 5 0 4 0;
#X connect 5 1 4 1;
#X connect 6 0 7 0;
#X connect 7 0 4 0;
#X connect 8 0 13 0;
#X connect 8 1 11 0;
#X connect 8 2 9 0;
#X connect 9 0 19 0;
#X connect 10 0 9 1;
#X connect 11 0 15 0;
#X connect 12 0 11 1;
#X connect 12 0 17 0;
#X connect 13 0 14 0;
#X connect 14 0 16 2;
#X connect 15 0 16 1;
#X connect 16 0 3 0;
#X connect 18 0 13 1;
#X connect 19 0 16 0;
#X restore 437 380 pd distFromTree;
#X obj 385 19 r distFromTree;
#X obj 658 124 vsl 15 128 0 1 0 0 R-arvore empty R-arvore 0 -9 0 10
-262144 -1 -1 900 1;
#X floatatom 654 274 5 0 0 0 - - -, f 5;
#X obj 15 30 t a b;
#X obj 47 59 s click;
#N canvas 540 233 621 433 varre 1;
#X obj 70 11 r click;
#X obj 73 94 f;
#X obj 105 93 + 1;
#X obj 86 131 mod 7;
#X obj 207 236 f;
#X obj 239 235 + 1;
#X msg 146 129 0;
#X msg 273 188 0;
#X obj 211 265 mod 13;
#X obj 214 290 sel 12;
#X obj 37 102 bng 15 250 50 0 empty empty empty 17 7 0 10 -262144 -1
-1;
#X obj 87 336 s LINHA;
#X obj 162 339 s COLUNA;
#X obj 322 76 r LINHA;
#X obj 326 196 s Y;
#X obj 387 76 r COLUNA;
#X obj 406 197 s X;
#X obj 266 39 r zeraVarre;
#X obj 325 140 * 0.142;
#X obj 325 168 + 0.071;
#X obj 395 137 * 0.076;
#X obj 395 167 + 0.038;
#X obj 149 163 sel 6;
#X obj 150 196 t b b;
#X obj 141 12 inlet;
#X obj 77 48 spigot;
#X obj 138 43 tgl 15 0 empty empty empty 17 7 0 10 -262144 -1 -1 0
1;
#X obj 496 33 r imgSize;
#X obj 496 61 unpack f f;
#X obj 462 137 / 2;
#X obj 507 137 / 2;
#X floatatom 453 180 5 0 0 0 - - -, f 5;
#X floatatom 498 184 5 0 0 0 - - -, f 5;
#X msg 458 17 1;
#X obj 460 99 / 7;
#X obj 505 102 / 13;
#X obj 137 70 r speed;
#X obj 77 70 speedlim;
#X connect 0 0 25 0;
#X connect 1 0 2 0;
#X connect 1 0 3 0;
#X connect 2 0 1 1;
#X connect 3 0 11 0;
#X connect 3 0 22 0;
#X connect 4 0 5 0;
#X connect 4 0 8 0;
#X connect 4 0 12 0;
#X connect 5 0 4 1;
#X connect 6 0 1 1;
#X connect 7 0 4 1;
#X connect 8 0 9 0;
#X connect 9 0 7 0;
#X connect 10 0 1 0;
#X connect 13 0 18 0;
#X connect 15 0 20 0;
#X connect 17 0 6 0;
#X connect 17 0 7 0;
#X connect 18 0 19 0;
#X connect 19 0 14 0;
#X connect 20 0 21 0;
#X connect 21 0 16 0;
#X connect 22 0 23 0;
#X connect 23 0 6 0;
#X connect 23 1 4 0;
#X connect 24 0 26 0;
#X connect 25 0 37 0;
#X connect 26 0 25 1;
#X connect 27 0 28 0;
#X connect 28 0 34 1;
#X connect 28 1 35 1;
#X connect 29 0 19 1;
#X connect 30 0 21 1;
#X connect 33 0 34 0;
#X connect 33 0 35 0;
#X connect 34 0 18 1;
#X connect 34 0 29 0;
#X connect 34 0 31 0;
#X connect 35 0 20 1;
#X connect 35 0 30 0;
#X connect 35 0 32 0;
#X connect 36 0 37 1;
#X connect 37 0 1 0;
#X restore 436 313 pd varre;
#X msg 43 449 quality 0;
#N canvas 1 54 450 300 init 0;
#X obj 40 44 loadbang;
#X msg 43 77 \; BB bang \;;
#X connect 0 0 1 0;
#X restore 696 57 pd init;
#X obj 55 421 r BB;
#X obj 406 279 tgl 15 0 empty empty empty 17 7 0 10 -262144 -1 -1 0
1;
#X text 399 260 ON;
#X obj 480 278 tgl 15 0 empty empty empty 17 7 0 10 -262144 -1 -1 1
1;
#X text 474 262 show;
#X obj 386 45 unpack f f f;
#X obj 376 70 tgl 15 0 empty empty empty 17 7 0 10 -262144 -1 -1 1
1;
#X obj 414 74 tgl 15 0 empty empty empty 17 7 0 10 -262144 -1 -1 1
1;
#X obj 460 79 tgl 15 0 empty empty empty 17 7 0 10 -262144 -1 -1 0
1;
#X obj 226 84 s imgSize;
#X obj 64 111 r imgSize;
#X obj 692 127 vsl 15 128 0 0.7 0 0 R-zona1 empty R-zona1 0 -9 0 10
-262144 -1 -1 5700 1;
#X floatatom 692 276 5 0 0 0 - - -, f 5;
#X obj 735 121 vsl 15 128 0 0.7 0 0 R-zona2 empty R-zona2 0 -9 0 10
-262144 -1 -1 8600 1;
#X floatatom 732 276 5 0 0 0 - - -, f 5;
#N canvas 1 61 366 293 outStuff 0;
#X obj 58 53 r LINHA;
#X obj 123 53 r COLUNA;
#X obj 186 55 r V;
#X obj 72 85 pack f f f;
#X text 122 124 escolhe linha;
#X text 148 184 escolhe coluna;
#X obj 90 251 print;
#X obj 72 129 route 0;
#X floatatom 170 161 5 0 0 0 - - -, f 5;
#X obj 98 178 route 6;
#X obj 186 230 comport;
#X msg 264 201 devices;
#X connect 0 0 3 0;
#X connect 1 0 3 1;
#X connect 2 0 3 2;
#X connect 3 0 7 0;
#X connect 7 1 8 0;
#X connect 7 1 9 0;
#X connect 9 0 6 0;
#X connect 11 0 10 0;
#X restore 444 488 pd outStuff;
#X obj 400 223 hsl 128 15 0 1000 0 0 speed empty speed -2 -8 0 10 -262144
-1 -1 12700 1;
#N canvas 1 150 568 494 show 1;
#X obj 63 249 translateXYZ;
#X obj 62 350 color;
#X obj 58 381 circle 0.2;
#X obj 63 142 gemhead 51;
#X msg 145 320 1 1 0;
#X obj 90 197 * 10;
#X obj 94 221 - 5;
#X obj 92 174 r X;
#X obj 128 173 r Y;
#X obj 126 196 * -8;
#X obj 130 220 + 4;
#X obj 67 95 tgl 15 0 empty empty empty 17 7 0 10 -262144 -1 -1 0 1
;
#X obj 61 63 inlet;
#X obj 410 145 r R-arvore;
#X obj 449 227 r R-zona1;
#X floatatom 461 253 5 0 0 0 - - -, f 5;
#X floatatom 435 168 5 0 0 0 - - -, f 5;
#X floatatom 496 334 5 0 0 0 - - -, f 5;
#X obj 479 310 r R-zona2;
#X obj 335 93 gemhead 51;
#X obj 340 67 tgl 15 0 empty empty empty 17 7 0 10 -262144 -1 -1 1
1;
#X obj 335 209 circle;
#X msg 363 153 0 0 1;
#X obj 334 185 color;
#X msg 295 248 draw line;
#X obj 439 284 * 4;
#X obj 392 184 * 4;
#X obj 340 327 circle;
#X obj 339 299 color;
#X obj 340 403 circle;
#X obj 342 373 color;
#X obj 468 357 * 4;
#X msg 375 353 1 0.5 1;
#X msg 375 277 0.3 1 1;
#X msg 148 290 0.4 0.2 0.5;
#X msg 154 345 1 0.2 0.5;
#X connect 0 0 1 0;
#X connect 1 0 2 0;
#X connect 3 0 0 0;
#X connect 4 0 1 1;
#X connect 5 0 6 0;
#X connect 6 0 0 1;
#X connect 7 0 5 0;
#X connect 8 0 9 0;
#X connect 9 0 10 0;
#X connect 10 0 0 2;
#X connect 11 0 3 0;
#X connect 12 0 11 0;
#X connect 13 0 16 0;
#X connect 13 0 26 0;
#X connect 14 0 15 0;
#X connect 14 0 25 0;
#X connect 18 0 17 0;
#X connect 18 0 31 0;
#X connect 19 0 23 0;
#X connect 20 0 19 0;
#X connect 21 0 28 0;
#X connect 22 0 23 1;
#X connect 23 0 21 0;
#X connect 24 0 21 0;
#X connect 24 0 27 0;
#X connect 24 0 29 0;
#X connect 25 0 27 1;
#X connect 26 0 21 1;
#X connect 27 0 30 0;
#X connect 28 0 27 0;
#X connect 30 0 29 0;
#X connect 31 0 29 1;
#X connect 32 0 30 1;
#X connect 33 0 28 1;
#X connect 34 0 1 1;
#X connect 35 0 1 1;
#X restore 472 438 pd show;
#X connect 0 0 14 0;
#X connect 2 0 1 0;
#X connect 3 0 15 0;
#X connect 4 0 1 0;
#X connect 5 0 18 0;
#X connect 6 0 5 0;
#X connect 7 0 37 0;
#X connect 8 0 14 0;
#X connect 9 0 11 0;
#X connect 10 0 12 0;
#X connect 11 0 51 0;
#X connect 12 0 11 0;
#X connect 12 1 11 1;
#X connect 13 1 31 0;
#X connect 14 0 6 0;
#X connect 16 0 3 0;
#X connect 16 1 13 1;
#X connect 17 0 22 0;
#X connect 17 1 19 0;
#X connect 17 2 20 0;
#X connect 17 2 32 0;
#X connect 17 3 21 0;
#X connect 18 0 16 0;
#X connect 23 0 13 0;
#X connect 23 1 13 3;
#X connect 24 0 13 0;
#X connect 24 1 13 2;
#X connect 27 0 25 0;
#X connect 28 0 26 0;
#X connect 29 0 24 0;
#X connect 30 0 23 0;
#X connect 31 0 17 0;
#X connect 34 0 47 0;
#X connect 35 0 36 0;
#X connect 37 0 0 0;
#X connect 37 1 38 0;
#X connect 40 0 3 0;
#X connect 42 0 40 0;
#X connect 43 0 39 0;
#X connect 47 0 48 0;
#X connect 47 1 49 0;
#X connect 47 2 50 0;
#X connect 52 0 8 0;
#X connect 53 0 54 0;
#X connect 55 0 56 0;
