#N canvas 1 95 616 284 10;
#X obj 70 185 spigot;
#X obj 153 179 spigot;
#X obj 431 70 == 0;
#X obj 467 70 == 1;
#X obj 437 21 inlet control;
#X obj 183 242 outlet;
#X obj -19 29 inlet signal-1;
#X obj 81 35 inlet signal-2;
#X obj 437 43 t f f f f;
#X obj 182 47 inlet signal-3;
#X obj 282 53 inlet signal-4;
#X obj 211 197 spigot;
#X obj 294 191 spigot;
#X obj 502 71 == 2;
#X obj 538 71 == 3;
#X connect 0 0 5 0;
#X connect 1 0 5 0;
#X connect 2 0 0 1;
#X connect 3 0 1 1;
#X connect 4 0 8 0;
#X connect 6 0 0 0;
#X connect 7 0 1 0;
#X connect 8 0 2 0;
#X connect 8 1 3 0;
#X connect 8 2 13 0;
#X connect 8 3 14 0;
#X connect 9 0 11 0;
#X connect 10 0 12 0;
#X connect 11 0 5 0;
#X connect 12 0 5 0;
#X connect 13 0 11 1;
#X connect 14 0 12 1;
