#N canvas 283 85 875 738 10;
#X obj 38 106 vsl 30 200 0 127 0 0 red empty empty 0 -9 0 10 -258113
-1 -1 0 1;
#X obj 72 106 vsl 30 200 0 127 0 0 green empty empty 0 -9 0 10 -4034
-1 -1 0 1;
#X obj 107 106 vsl 30 200 0 127 0 0 blue empty empty 0 -9 0 10 -4160
-1 -1 0 1;
#N canvas 216 83 938 684 matConn 1;
#X msg 143 473 devices;
#X obj 148 639 comport 2 115200;
#X text 23 423 Apagar;
#X obj 233 435 print;
#X obj 251 319 t b f;
#X obj 289 319 t b f;
#X obj 289 296 * 2;
#X obj 251 296 * 2;
#X obj 225 319 * 2;
#X obj 204 232 r red;
#X obj 244 231 r green;
#X obj 297 231 r blue;
#X obj 205 258 int;
#X obj 244 258 int;
#X obj 296 258 int;
#X obj 148 117 vsl 15 128 0 127 0 0 empty empty empty 0 -9 0 10 -262144
-1 -1 0 1;
#X obj 169 117 vsl 15 128 0 127 0 0 empty empty empty 0 -9 0 10 -262144
-1 -1 0 1;
#X obj 188 117 vsl 15 128 0 127 0 0 empty empty empty 0 -9 0 10 -262144
-1 -1 0 1;
#X obj 57 81 random 127;
#X obj 126 80 random 127;
#X obj 203 79 random 127;
#X obj 139 2 r random;
#X obj 201 -12 r vel;
#X floatatom 256 52 5 0 0 0 - - -, f 5;
#X obj 201 11 int;
#X msg 262 473 print 5L250R205G10Bd;
#X msg 25 473 print 1000L0R0G0BD;
#X obj 49 53 metro 500;
#X obj 118 52 metro 500;
#X obj 195 51 metro 500;
#X obj 228 368 pack f f f;
#X msg 228 390 print 1000l\$1R\$2G\$3Bd;
#X msg 410 470 print 0s255r0g0bd;
#X msg 527 469 print 2s0r255g0bd;
#X msg 445 410 print 100l255r100g0bd;
#X obj 227 611 r ledsMens;
#X obj 528 333 s ledsMens;
#X msg 528 303 print 16s255r0g0bd;
#X obj 25 445 r del;
#X obj 756 433 s ledsMens;
#X floatatom 184 348 5 0 0 0 - - -, f 5;
#X floatatom 149 348 5 0 0 0 - - -, f 5;
#X floatatom 115 349 5 0 0 0 - - -, f 5;
#X msg 756 409 print 1000l139r37g0bd;
#X msg 205 473 open 32;
#X connect 0 0 1 0;
#X connect 4 0 30 0;
#X connect 4 1 30 1;
#X connect 5 0 30 0;
#X connect 5 1 30 2;
#X connect 6 0 5 0;
#X connect 6 0 40 0;
#X connect 7 0 4 0;
#X connect 7 0 41 0;
#X connect 8 0 30 0;
#X connect 8 0 42 0;
#X connect 9 0 12 0;
#X connect 10 0 13 0;
#X connect 11 0 14 0;
#X connect 12 0 8 0;
#X connect 13 0 7 0;
#X connect 14 0 6 0;
#X connect 15 0 12 0;
#X connect 16 0 13 0;
#X connect 17 0 14 0;
#X connect 18 0 15 0;
#X connect 19 0 16 0;
#X connect 20 0 17 0;
#X connect 21 0 27 0;
#X connect 21 0 28 0;
#X connect 21 0 29 0;
#X connect 22 0 24 0;
#X connect 24 0 23 0;
#X connect 24 0 27 1;
#X connect 24 0 28 1;
#X connect 24 0 29 1;
#X connect 25 0 1 0;
#X connect 26 0 1 0;
#X connect 27 0 18 0;
#X connect 28 0 19 0;
#X connect 29 0 20 0;
#X connect 30 0 31 0;
#X connect 31 0 1 0;
#X connect 31 0 3 0;
#X connect 32 0 1 0;
#X connect 33 0 1 0;
#X connect 34 0 1 0;
#X connect 35 0 1 0;
#X connect 37 0 36 0;
#X connect 38 0 26 0;
#X connect 43 0 39 0;
#X connect 44 0 1 0;
#X restore 40 473 pd matConn;
#X obj 161 257 tgl 50 0 random empty empty 17 7 0 10 -159808 -1 -1
0 1;
#X obj 160 109 vsl 50 130 0 30 0 0 vel empty empty 0 -9 0 10 -159808
-1 -1 0 1;
#X obj 274 266 tgl 50 0 efRedPink empty empty 17 7 0 10 -258113 -1
-1 0 1;
#N canvas 553 122 727 614 effects 0;
#X obj 31 286 s ledsMens;
#X obj 63 169 line 0 100;
#X floatatom 25 232 5 0 0 0 - - -, f 5;
#X obj 63 195 int;
#X msg 146 124 stop;
#X obj 32 39 metro 10000;
#X obj 32 11 tgl 15 0 empty efRedPink empty 17 7 0 10 -262144 -1 -1
0 1;
#X obj 191 287 s ledsMens;
#X obj 226 168 line 0 100;
#X floatatom 188 231 5 0 0 0 - - -, f 5;
#X obj 226 194 int;
#X msg 309 123 stop;
#X obj 210 3 tgl 15 0 empty efGreenBlue empty 17 7 0 10 -262144 -1
-1 0 1;
#X msg 283 101 75 5000;
#X obj 360 283 s ledsMens;
#X obj 398 167 line 0 100;
#X floatatom 360 230 5 0 0 0 - - -, f 5;
#X obj 398 193 int;
#X msg 481 122 stop;
#X obj 377 7 tgl 15 0 empty efGreenYellow empty 17 7 0 10 -262144 -1
-1 0 1;
#X msg 466 88 150 5000;
#X obj 192 567 s ledsMens;
#X obj 183 462 line 0 100;
#X floatatom 187 513 5 0 0 0 - - -, f 5;
#X obj 183 488 int;
#X msg 266 417 stop;
#X obj 152 327 tgl 15 0 empty efGreenInt empty 17 7 0 10 -262144 -1
-1 0 1;
#X msg 192 542 print 1000l0r\$1g0bd;
#X msg 152 418 255 2000;
#X obj 176 381 delay 2000;
#X obj 152 355 metro 4000;
#X msg 212 418 75 2000;
#X obj 563 545 s ledsMens;
#X obj 564 483 pack f f;
#X obj 581 447 t b f;
#X obj 521 394 r group;
#X floatatom 498 427 5 0 0 0 - - -, f 5;
#X floatatom 509 510 5 0 0 0 - - -, f 5;
#X obj 591 368 line 0 100;
#X obj 591 394 int;
#X msg 674 323 stop;
#X floatatom 623 427 5 0 0 0 - - -, f 5;
#X obj 456 514 print;
#X msg 563 519 print \$1s0r255r\$2bd;
#X msg 21 128 0 5000;
#X msg 96 97 100 5000;
#X msg 358 257 print 1000l\$1r255g0bd;
#X msg 193 260 print 1000l0r255g\$1bd;
#X msg 30 261 print 1000l255r0g\$1bd;
#X obj 637 552 print;
#X obj 637 552 print;
#X obj 637 574 print;
#X obj 18 102 delay 5000;
#X obj 32 65 t b b;
#X obj 213 33 metro 10000;
#X msg 202 122 0 5000;
#X obj 199 96 delay 5000;
#X obj 213 59 t b b;
#X obj 380 34 metro 10000;
#X msg 377 111 0 5000;
#X obj 374 85 delay 5000;
#X obj 380 60 t b b;
#X obj 574 228 metro 10000;
#X msg 563 317 0 5000;
#X obj 560 291 delay 5000;
#X obj 574 254 t b b;
#X msg 641 295 150 5000;
#X text 64 12 efRedPink;
#X text 233 7 efGreenBlue;
#X text 402 8 efGreenBlue;
#X text 574 189 choose LEDS group;
#X text 178 328 efGreenInt;
#X connect 1 0 3 0;
#X connect 2 0 48 0;
#X connect 3 0 2 0;
#X connect 4 0 1 0;
#X connect 5 0 53 0;
#X connect 6 0 5 0;
#X connect 8 0 10 0;
#X connect 9 0 47 0;
#X connect 10 0 9 0;
#X connect 11 0 8 0;
#X connect 12 0 54 0;
#X connect 13 0 8 0;
#X connect 15 0 17 0;
#X connect 16 0 46 0;
#X connect 17 0 16 0;
#X connect 18 0 15 0;
#X connect 19 0 58 0;
#X connect 20 0 15 0;
#X connect 22 0 24 0;
#X connect 23 0 27 0;
#X connect 24 0 23 0;
#X connect 25 0 22 0;
#X connect 26 0 30 0;
#X connect 27 0 21 0;
#X connect 28 0 22 0;
#X connect 29 0 31 0;
#X connect 30 0 28 0;
#X connect 30 0 29 0;
#X connect 31 0 22 0;
#X connect 33 0 37 0;
#X connect 33 0 43 0;
#X connect 33 0 42 0;
#X connect 34 0 33 0;
#X connect 34 1 33 1;
#X connect 35 0 36 0;
#X connect 35 0 33 0;
#X connect 38 0 39 0;
#X connect 39 0 34 0;
#X connect 39 0 41 0;
#X connect 40 0 38 0;
#X connect 43 0 32 0;
#X connect 44 0 1 0;
#X connect 45 0 1 0;
#X connect 46 0 14 0;
#X connect 47 0 7 0;
#X connect 48 0 0 0;
#X connect 52 0 44 0;
#X connect 53 0 52 0;
#X connect 53 1 45 0;
#X connect 54 0 57 0;
#X connect 55 0 8 0;
#X connect 56 0 55 0;
#X connect 57 0 56 0;
#X connect 57 1 13 0;
#X connect 58 0 61 0;
#X connect 59 0 15 0;
#X connect 60 0 59 0;
#X connect 61 0 60 0;
#X connect 61 1 20 0;
#X connect 62 0 65 0;
#X connect 63 0 38 0;
#X connect 64 0 63 0;
#X connect 65 0 64 0;
#X connect 65 1 66 0;
#X connect 66 0 38 0;
#X restore 129 472 pd effects;
#X obj 273 127 tgl 50 0 efGreenBlue empty empty 17 7 0 10 -4032 -1
-1 0 1;
#X obj 274 196 tgl 50 0 efGreenYellow empty empty 17 7 0 10 -257985
-1 -1 0 1;
#X obj 39 29 bng 59 250 50 0 del empty empty 17 7 0 10 -1 -1 -1;
#X obj 274 59 tgl 50 0 efGreenInt empty empty 17 7 0 10 -204786 -1
-1 0 1;
#X obj 34 639 hradio 30 1 0 26 group empty empty 0 -8 0 10 -262144
-1 -1 0;
#X text 341 77 pulsar verde;
#X text 341 140 verde a azul;
#X text 342 210 verde a amarelo;
#X text 349 283 cor de rosa;
#X obj 602 46 route 1 2 3;
#X obj 644 137 unpack f f f;
#X floatatom 634 168 5 0 0 0 - - -, f 5;
#X floatatom 685 168 5 0 0 0 - - -, f 5;
#X floatatom 729 162 5 0 0 0 - - -, f 5;
#X obj 677 73 unpack f f f;
#X floatatom 667 104 5 0 0 0 - - -, f 5;
#X floatatom 718 104 5 0 0 0 - - -, f 5;
#X floatatom 762 98 5 0 0 0 - - -, f 5;
#X obj 600 9 r pixelValues;
#N canvas 184 201 222 566 ledsZone1 1;
#X obj 45 14 inlet;
#X obj 49 37 unpack f f f;
#X floatatom 19 70 5 0 0 0 - - -, f 5;
#X obj 59 252 hsv2rgb;
#X floatatom 33 202 5 0 0 0 - - -, f 5;
#X obj 28 471 s ledsMens;
#X obj 69 228 pack f 1 f;
#X obj 93 170 line 1 200;
#X obj 69 72 > 0;
#X obj 76 104 sel 1 0;
#X obj 88 199 t b f;
#X floatatom 18 364 5 0 0 0 - - -, f 5;
#X floatatom 60 363 5 0 0 0 - - -, f 5;
#X floatatom 119 360 5 0 0 0 - - -, f 5;
#X obj 40 419 pack f f f;
#X obj 56 385 t b f;
#X obj 114 390 t b f;
#X obj 59 276 unpack f f f;
#X obj 27 313 * 255;
#X obj 79 310 * 255;
#X obj 29 338 int;
#X obj 80 334 int;
#X obj 126 312 * 255;
#X obj 127 336 int;
#X msg 118 137 0 2000;
#X msg 63 140 1 50;
#X msg 44 180 0.3;
#X msg 29 444 print 500l\$1r\$2g\$3bd;
#X connect 0 0 1 0;
#X connect 1 0 2 0;
#X connect 1 0 8 0;
#X connect 3 0 17 0;
#X connect 4 0 6 0;
#X connect 6 0 3 0;
#X connect 7 0 10 0;
#X connect 8 0 9 0;
#X connect 9 0 25 0;
#X connect 9 1 24 0;
#X connect 10 0 6 0;
#X connect 10 1 6 2;
#X connect 11 0 14 0;
#X connect 12 0 15 0;
#X connect 13 0 16 0;
#X connect 14 0 27 0;
#X connect 15 0 14 0;
#X connect 15 1 14 1;
#X connect 16 0 14 0;
#X connect 16 1 14 2;
#X connect 17 0 18 0;
#X connect 17 1 19 0;
#X connect 17 2 22 0;
#X connect 18 0 20 0;
#X connect 19 0 21 0;
#X connect 20 0 11 0;
#X connect 21 0 12 0;
#X connect 22 0 23 0;
#X connect 23 0 13 0;
#X connect 24 0 7 0;
#X connect 25 0 7 0;
#X connect 26 0 6 0;
#X connect 27 0 5 0;
#X restore 506 290 pd ledsZone1;
#N canvas 186 206 243 543 ledsZone2 0;
#X obj 45 14 inlet;
#X obj 49 37 unpack f f f;
#X floatatom 19 70 5 0 0 0 - - -, f 5;
#X obj 59 252 hsv2rgb;
#X floatatom 33 202 5 0 0 0 - - -, f 5;
#X obj 28 471 s ledsMens;
#X obj 69 228 pack f 1 f;
#X obj 93 170 line 1 200;
#X obj 69 72 > 0;
#X obj 76 104 sel 1 0;
#X obj 88 199 t b f;
#X floatatom 18 364 5 0 0 0 - - -, f 5;
#X floatatom 60 363 5 0 0 0 - - -, f 5;
#X floatatom 119 360 5 0 0 0 - - -, f 5;
#X obj 40 419 pack f f f;
#X obj 56 385 t b f;
#X obj 114 390 t b f;
#X obj 59 276 unpack f f f;
#X obj 27 313 * 255;
#X obj 79 310 * 255;
#X obj 29 338 int;
#X obj 80 334 int;
#X obj 126 312 * 255;
#X obj 127 336 int;
#X msg 29 444 print 1000l\$1r\$2g\$3bd;
#X msg 118 137 0 2000;
#X msg 63 140 1 50;
#X msg 44 180 0.3;
#X connect 0 0 1 0;
#X connect 1 0 2 0;
#X connect 1 0 8 0;
#X connect 3 0 17 0;
#X connect 4 0 6 0;
#X connect 6 0 3 0;
#X connect 7 0 10 0;
#X connect 8 0 9 0;
#X connect 9 0 26 0;
#X connect 9 1 25 0;
#X connect 10 0 6 0;
#X connect 10 1 6 2;
#X connect 11 0 14 0;
#X connect 12 0 15 0;
#X connect 13 0 16 0;
#X connect 14 0 24 0;
#X connect 15 0 14 0;
#X connect 15 1 14 1;
#X connect 16 0 14 0;
#X connect 16 1 14 2;
#X connect 17 0 18 0;
#X connect 17 1 19 0;
#X connect 17 2 22 0;
#X connect 18 0 20 0;
#X connect 19 0 21 0;
#X connect 20 0 11 0;
#X connect 21 0 12 0;
#X connect 22 0 23 0;
#X connect 23 0 13 0;
#X connect 24 0 5 0;
#X connect 25 0 7 0;
#X connect 26 0 7 0;
#X connect 27 0 6 0;
#X restore 508 316 pd ledsZone2;
#X msg 49 404 print 1000l\$1r\$2g\$3bd;
#X obj 50 338 bng 15 250 50 0 empty empty empty 17 7 0 10 -262144 -1
-1;
#X msg 50 370 0 0 0;
#X obj 50 431 s ledsMens;
#X connect 17 1 18 0;
#X connect 17 2 22 0;
#X connect 18 0 19 0;
#X connect 18 1 20 0;
#X connect 18 2 21 0;
#X connect 22 0 23 0;
#X connect 22 1 24 0;
#X connect 22 2 25 0;
#X connect 26 0 17 0;
#X connect 29 0 32 0;
#X connect 30 0 31 0;
#X connect 31 0 29 0;
