#N canvas 930 64 925 863 16;
#X obj 39 81 gemwin;
#X msg 48 49 0 \, destroy;
#X obj 44 165 gemhead;
#X obj 39 711 sphere;
#X obj 42 205 translateXYZ;
#X obj 38 589 colorRGB;
#X msg 130 656 20;
#X obj 137 88 tgl 15 0 empty empty empty 17 7 0 10 -262144 -1 -1 0
1;
#X msg 95 112 lighting \$1;
#X floatatom 75 655 5 0 0 0 - - -;
#X msg 35 21 dimen 1920 1080 \, create \, 1;
#X obj 245 689 hsv2rgb;
#X obj 249 449 vsl 15 128 0 1 0 0 empty empty empty 0 -9 0 10 -262144
-1 -1 4229 1;
#X obj 372 444 vsl 15 128 0 1 0 0 empty empty empty 0 -9 0 10 -262144
-1 -1 9601 1;
#X obj 429 445 vsl 15 128 0 1 0 0 empty empty empty 0 -9 0 10 -262144
-1 -1 10198 1;
#X obj 281 612 t b f;
#X obj 243 658 pack f f f;
#X obj 187 724 unpack f f f;
#X obj 354 615 t b f;
#X obj 327 40 world_light;
#X obj 359 11 gemhead;
#X text 317 450 Hue;
#X text 393 449 Sat;
#X text 454 452 Val;
#X msg 232 395 0.15;
#X obj 482 396 line;
#X msg 487 356 0;
#X msg 534 357 1 200;
#X floatatom 335 540 5 0 0 0 - - -;
#X msg 337 401 0.85;
#X msg 604 358 0.6 1000;
#X obj 331 348 line;
#X msg 303 319 0.15;
#X obj 252 87 bng 15 250 50 0 empty empty empty 17 7 0 10 -262144 -1
-1;
#X msg 365 308 0.275 1000;
#X obj 427 113 bng 15 250 50 0 empty empty empty 17 7 0 10 -262144
-1 -1;
#X obj 379 223 t b b;
#X obj 610 174 sin;
#X floatatom 614 215 5 0 0 0 - - -;
#X obj 618 58 line;
#X msg 574 12 0;
#X msg 628 13 14 500;
#X obj 276 115 t b b b;
#X obj 431 140 t b b b;
#X obj 370 193 delay 700;
#X obj 474 192 delay 500;
#X floatatom 157 776 5 0 0 0 - - -;
#X floatatom 244 776 5 0 0 0 - - -;
#X floatatom 331 777 5 0 0 0 - - -;
#X text 175 799 R;
#X text 250 804 G;
#X text 324 803 B;
#N canvas 1316 145 502 497 checkaCores 0;
#X obj 62 55 rgb2hsv;
#X floatatom 35 167 5 0 0 0 - - -;
#X floatatom 130 172 5 0 0 0 - - -;
#X floatatom 225 174 5 0 0 0 - - -;
#X obj 72 118 unpack 0 0 0;
#X obj 119 -167 unpack f f f;
#X floatatom 75 -132 5 0 0 0 - - -;
#X floatatom 145 -132 5 0 0 0 - - -;
#X floatatom 212 -132 5 0 0 0 - - -;
#X obj 99 -81 / 255;
#X obj 159 -84 / 255;
#X obj 224 -82 / 255;
#X obj 109 -2 pack f f f;
#X msg 119 -212 50 205 50;
#X connect 0 0 4 0;
#X connect 4 0 1 0;
#X connect 4 1 2 0;
#X connect 4 2 3 0;
#X connect 5 0 6 0;
#X connect 5 0 9 0;
#X connect 5 1 7 0;
#X connect 5 1 10 0;
#X connect 5 2 8 0;
#X connect 5 2 11 0;
#X connect 9 0 12 0;
#X connect 10 0 12 1;
#X connect 11 0 12 2;
#X connect 12 0 0 0;
#X connect 13 0 5 0;
#X restore 790 161 pd checkaCores;
#N canvas 0 131 654 529 colers 0;
#X msg 56 80 0.333 1 0.501;
#X text 209 76 green;
#X obj 59 115 unpack f f f;
#X obj 54 143 s H;
#X obj 107 153 s S;
#X obj 158 157 s V;
#X obj 54 227 unpack f f f;
#X obj 57 255 s H;
#X obj 109 258 s S;
#X obj 160 262 s V;
#X msg 49 294 0.406 0.669 0.545;
#X obj 50 325 unpack f f f;
#X obj 45 353 s H;
#X obj 106 354 s S;
#X obj 166 357 s V;
#X text 207 193 dark green;
#X text 237 293 sea green;
#X obj 39 421 unpack f f f;
#X obj 34 449 s H;
#X obj 95 450 s S;
#X obj 155 453 s V;
#X msg 47 391 0.407 0.664 0.701;
#X text 237 390 med sea green;
#X msg 48 488 0.348 0.834 0.803;
#X obj 49 518 unpack f f f;
#X obj 44 546 s H;
#X obj 105 547 s S;
#X obj 165 550 s V;
#X text 246 487 forest green;
#X msg 42 586 0.333 0.756 0.803;
#X obj 44 619 unpack f f f;
#X obj 39 647 s H;
#X obj 100 648 s S;
#X obj 160 651 s V;
#X text 233 579 lime;
#X obj 363 127 metro 4000;
#X obj 360 90 tgl 15 0 empty empty empty 17 7 0 10 -262144 -1 -1 0
1;
#X obj 366 168 f;
#X obj 411 168 + 1;
#X floatatom 458 208 5 0 0 0 - - -;
#X obj 365 220 mod 6;
#X floatatom 466 289 5 0 0 0 - - -;
#X msg 53 194 0.333 0.7 0.392;
#X obj 390 333 sel 0 1 2 3 4 5;
#X obj 364 42 inlet;
#X connect 0 0 2 0;
#X connect 2 0 3 0;
#X connect 2 1 4 0;
#X connect 2 2 5 0;
#X connect 6 0 7 0;
#X connect 6 1 8 0;
#X connect 6 2 9 0;
#X connect 10 0 11 0;
#X connect 11 0 12 0;
#X connect 11 1 13 0;
#X connect 11 2 14 0;
#X connect 17 0 18 0;
#X connect 17 1 19 0;
#X connect 17 2 20 0;
#X connect 21 0 17 0;
#X connect 23 0 24 0;
#X connect 24 0 25 0;
#X connect 24 1 26 0;
#X connect 24 2 27 0;
#X connect 29 0 30 0;
#X connect 30 0 31 0;
#X connect 30 1 32 0;
#X connect 30 2 33 0;
#X connect 35 0 37 0;
#X connect 36 0 35 0;
#X connect 37 0 38 0;
#X connect 37 0 39 0;
#X connect 37 0 40 0;
#X connect 38 0 37 1;
#X connect 40 0 41 0;
#X connect 40 0 43 0;
#X connect 42 0 6 0;
#X connect 43 0 0 0;
#X connect 43 1 42 0;
#X connect 43 2 10 0;
#X connect 43 3 21 0;
#X connect 43 4 23 0;
#X connect 43 5 29 0;
#X connect 44 0 36 0;
#X restore 773 339 pd colers;
#X obj 777 306 tgl 15 0 empty empty empty 17 7 0 10 -262144 -1 -1 0
1;
#X obj 146 389 r H;
#X obj 401 396 r S;
#X obj 493 424 r V;
#X obj 571 643 s ledsMens;
#X msg 557 574 print 1000l\$1r\$2g\$3bd;
#X connect 1 0 0 0;
#X connect 2 0 4 0;
#X connect 4 0 5 0;
#X connect 5 0 3 0;
#X connect 6 0 3 2;
#X connect 7 0 8 0;
#X connect 8 0 0 0;
#X connect 9 0 3 1;
#X connect 10 0 0 0;
#X connect 11 0 17 0;
#X connect 11 0 59 0;
#X connect 12 0 16 0;
#X connect 13 0 15 0;
#X connect 13 0 28 0;
#X connect 14 0 18 0;
#X connect 15 0 16 0;
#X connect 15 1 16 1;
#X connect 16 0 11 0;
#X connect 17 0 5 1;
#X connect 17 0 46 0;
#X connect 17 1 5 2;
#X connect 17 1 47 0;
#X connect 17 2 5 3;
#X connect 17 2 48 0;
#X connect 18 0 16 0;
#X connect 18 1 16 2;
#X connect 20 0 19 0;
#X connect 24 0 12 0;
#X connect 25 0 14 0;
#X connect 26 0 25 0;
#X connect 27 0 25 0;
#X connect 29 0 13 0;
#X connect 30 0 25 0;
#X connect 31 0 12 0;
#X connect 32 0 31 0;
#X connect 33 0 42 0;
#X connect 34 0 31 0;
#X connect 35 0 43 0;
#X connect 36 0 34 0;
#X connect 36 1 30 0;
#X connect 37 0 38 0;
#X connect 37 0 14 0;
#X connect 39 0 37 0;
#X connect 40 0 39 0;
#X connect 41 0 39 0;
#X connect 42 0 32 0;
#X connect 42 1 26 0;
#X connect 42 2 40 0;
#X connect 43 0 44 0;
#X connect 43 1 45 0;
#X connect 43 2 41 0;
#X connect 44 0 36 0;
#X connect 45 0 27 0;
#X connect 54 0 53 0;
#X connect 55 0 12 0;
#X connect 56 0 13 0;
#X connect 57 0 14 0;
#X connect 59 0 58 0;
