#N canvas 1 104 742 636 10;
#X obj 476 91 gemwin;
#X msg 476 41 dimen 640 480 \, create \, 1;
#X obj 25 578 pix_texture;
#X msg 506 67 0 \, destroy;
#X obj 19 355 alpha;
#X obj 144 434 pix_data;
#X obj 20 390 t a a;
#X obj 183 374 t b f;
#X obj 136 372 t b f;
#X obj 152 312 r X;
#X obj 188 311 r Y;
#X obj 188 464 s V;
#N canvas 211 311 524 456 distFromTree 0;
#X obj 75 24 r X;
#X obj 362 23 r Y;
#X floatatom 18 126 5 0 0 0 - - -, f 5;
#X obj 75 93 expr sqrt( ($f1 - 0.5)*($f1 - 0.5) + ($f2 - 0.5)*($f2
- 0.5) ), f 64;
#X obj 362 49 t b f;
#X obj 79 130 t f f f;
#X obj 308 217 > 0.05;
#X obj 349 188 r R-arvore;
#X obj 137 252 > 0.3;
#X obj 203 227 r R-zona1;
#X obj 26 258 > 0.6;
#X obj 27 286 tgl 15 0 empty empty empty 17 7 0 10 -262144 -1 -1 0
1;
#X obj 147 285 tgl 15 0 empty empty empty 17 7 0 10 -262144 -1 -1 0
1;
#X floatatom 209 256 5 0 0 0 - - -, f 5;
#X obj 67 235 r R-zona2;
#X obj 262 310 tgl 15 0 empty empty empty 17 7 0 10 -262144 -1 -1 1
1;
#X text -1 93 Distance \; from Center;
#X floatatom 75 263 5 0 0 0 - - -, f 5;
#X floatatom 370 223 5 0 0 0 - - -, f 5;
#X obj 142 372 expr $f1 + $f2 + $f3;
#X obj 127 415 s L;
#X text 170 417 sends out the label of the zone;
#X connect 0 0 3 0;
#X connect 1 0 4 0;
#X connect 3 0 2 0;
#X connect 3 0 5 0;
#X connect 4 0 3 0;
#X connect 4 1 3 1;
#X connect 5 0 10 0;
#X connect 5 1 8 0;
#X connect 5 2 6 0;
#X connect 6 0 15 0;
#X connect 7 0 6 1;
#X connect 7 0 18 0;
#X connect 8 0 12 0;
#X connect 9 0 8 1;
#X connect 9 0 13 0;
#X connect 10 0 11 0;
#X connect 11 0 19 2;
#X connect 12 0 19 1;
#X connect 14 0 10 1;
#X connect 14 0 17 0;
#X connect 15 0 19 0;
#X connect 19 0 20 0;
#X restore 581 369 pd distFromTree;
#X obj 538 154 vsl 15 128 0 1 0 0 R-arvore empty R-arvore 0 -9 0 10
-262144 -1 -1 1905 1;
#X floatatom 538 303 5 0 0 0 - - -, f 5;
#X msg 38 555 quality 0;
#N canvas 1 317 250 270 init 0;
#X obj 40 44 loadbang;
#X obj 46 224 s click;
#X obj 43 186 metro 1;
#X obj 43 150 tgl 15 0 empty empty empty 17 7 0 10 -262144 -1 -1 1
1;
#X obj 95 149 r speed;
#X msg 74 85 \; BB bang \; speed 20 \;;
#X connect 0 0 5 0;
#X connect 0 0 3 0;
#X connect 2 0 1 0;
#X connect 3 0 2 0;
#X connect 4 0 2 1;
#X restore 30 49 pd init;
#X obj 50 527 r BB;
#X obj 602 153 vsl 15 128 0 0.7 0 0 R-zona1 empty R-zona1 0 -9 0 10
-262144 -1 -1 3991 1;
#X floatatom 602 302 5 0 0 0 - - -, f 5;
#X obj 665 151 vsl 15 128 0 0.7 0 0 R-zona2 empty R-zona2 0 -9 0 10
-262144 -1 -1 7257 1;
#X floatatom 665 300 5 0 0 0 - - -, f 5;
#N canvas 456 159 821 588 outStuff 0;
#X obj 53 23 r V;
#X obj 54 53 t b f;
#X obj 351 205 spigot;
#X obj 386 173 tgl 15 0 empty empty empty 17 7 0 10 -262144 -1 -1 0
1;
#X obj 209 25 inlet;
#X obj 347 233 print L V X Y;
#X obj 12 25 r L;
#X obj 54 108 pack f f f f;
#X obj 100 26 r X;
#X obj 136 27 r Y;
#X obj 144 55 t b f;
#X obj 96 55 t b f;
#X obj 69 150 t l l;
#X obj 16 519 hradio 30 1 0 26 group empty empty 0 -8 0 10 -262144
-1 -1 0;
#X obj 74 244 route 1 2 3;
#N canvas 263 105 360 662 ledsZone1 0;
#X obj 45 14 inlet;
#X obj 49 37 unpack f f f;
#X floatatom 19 70 5 0 0 0 - - -, f 5;
#X obj 63 71 > 0;
#X obj 63 102 sel 1 0;
#X obj 91 604 s ledsMens;
#X obj 143 461 line 0 100;
#X floatatom 110 511 5 0 0 0 - - -, f 5;
#X obj 143 487 int;
#X msg 232 418 stop;
#X obj 112 326 tgl 15 0 empty efGreenInt empty 17 7 0 10 -262144 -1
-1 0 1;
#X msg 112 417 255 2000;
#X obj 136 380 delay 2000;
#X obj 112 354 metro 4000;
#X msg 172 417 75 2000;
#X msg 172 233 1;
#X obj 76 140 spigot;
#X obj 142 115 tgl 15 0 empty empty empty 17 7 0 10 -262144 -1 -1 1
1;
#X obj 135 201 t b b;
#X obj 99 238 delay 5000;
#X msg 108 265 0;
#X msg 74 266 1;
#X msg 209 234 0;
#X msg 143 83 1;
#X obj 44 350 sel 0;
#X obj 32 373 delay 2000;
#X obj 33 458 spigot;
#X obj 83 458 tgl 15 0 empty empty empty 17 7 0 10 -262144 -1 -1 1
1;
#X obj 79 433 == 0;
#X msg 43 501 0 800;
#X msg 95 547 print 2s0r\$1g0bd;
#X msg 111 568 print 1s0r\$1g0bd;
#X msg 231 570 print 4s0r\$1g0bd;
#X msg 216 548 print 3s0r\$1g0bd;
#X obj 227 93 loadbang;
#X msg 223 115 1;
#X floatatom 143 61 5 0 0 0 - - -, f 5;
#X obj 227 49 print zona1;
#X connect 0 0 1 0;
#X connect 1 0 2 0;
#X connect 1 0 3 0;
#X connect 3 0 4 0;
#X connect 3 0 36 0;
#X connect 4 0 16 0;
#X connect 6 0 8 0;
#X connect 7 0 30 0;
#X connect 7 0 33 0;
#X connect 8 0 7 0;
#X connect 9 0 6 0;
#X connect 10 0 13 0;
#X connect 10 0 24 0;
#X connect 10 0 28 0;
#X connect 11 0 6 0;
#X connect 12 0 14 0;
#X connect 13 0 11 0;
#X connect 13 0 12 0;
#X connect 14 0 6 0;
#X connect 15 0 10 0;
#X connect 16 0 18 0;
#X connect 17 0 16 1;
#X connect 18 0 19 0;
#X connect 18 1 15 0;
#X connect 18 1 22 0;
#X connect 19 0 20 0;
#X connect 19 0 21 0;
#X connect 20 0 10 0;
#X connect 21 0 17 0;
#X connect 22 0 17 0;
#X connect 23 0 4 0;
#X connect 24 0 25 0;
#X connect 25 0 26 0;
#X connect 26 0 29 0;
#X connect 27 0 26 1;
#X connect 28 0 27 0;
#X connect 29 0 6 0;
#X connect 30 0 5 0;
#X connect 31 0 5 0;
#X connect 32 0 5 0;
#X connect 33 0 5 0;
#X connect 34 0 35 0;
#X connect 35 0 17 0;
#X restore 50 452 pd ledsZone1;
#N canvas 397 103 440 664 ledsZone2 0;
#X obj 45 14 inlet;
#X obj 49 37 unpack f f f;
#X floatatom 19 70 5 0 0 0 - - -, f 5;
#X obj 63 71 > 0;
#X obj 63 102 sel 1 0;
#X obj 104 594 s ledsMens;
#X obj 143 461 line 0 100;
#X floatatom 105 524 5 0 0 0 - - -, f 5;
#X obj 143 487 int;
#X msg 232 418 stop;
#X obj 112 326 tgl 15 0 empty efGreenInt empty 17 7 0 10 -262144 -1
-1 0 1;
#X msg 172 233 1;
#X obj 76 140 spigot;
#X obj 142 115 tgl 15 0 empty empty empty 17 7 0 10 -262144 -1 -1 1
1;
#X obj 135 201 t b b;
#X obj 99 238 delay 5000;
#X msg 108 265 0;
#X msg 74 266 1;
#X msg 209 234 0;
#X msg 143 83 1;
#X obj 44 350 sel 0;
#X obj 32 373 delay 2000;
#X obj 33 458 spigot;
#X obj 83 458 tgl 15 0 empty empty empty 17 7 0 10 -262144 -1 -1 1
1;
#X obj 79 433 == 0;
#X obj 227 93 loadbang;
#X msg 223 115 1;
#X msg 96 547 print 5s0r\$1g0bd;
#X msg 111 568 print 6s0r\$1g0bd;
#X msg 217 549 print 7s0r\$1g0bd;
#X msg 231 569 print 8s0r\$1g0bd;
#X msg 112 417 255 1000;
#X msg 172 417 75 1000;
#X msg 294 391 print 9s0r0g0bd;
#X obj 321 479 s ledsMens;
#X msg 305 420 print 10s0r0g0bd;
#X msg 292 332 print 7s0r0g0bd;
#X msg 301 302 print 6s0r0g0bd;
#X msg 293 361 print 8s0r0g0bd;
#X obj 112 352 metro 4000;
#X obj 136 380 delay 2000;
#X msg 43 501 0 800;
#X connect 0 0 1 0;
#X connect 1 0 2 0;
#X connect 1 0 3 0;
#X connect 3 0 4 0;
#X connect 4 0 12 0;
#X connect 6 0 8 0;
#X connect 7 0 28 0;
#X connect 8 0 7 0;
#X connect 9 0 6 0;
#X connect 10 0 20 0;
#X connect 10 0 24 0;
#X connect 10 0 39 0;
#X connect 11 0 10 0;
#X connect 12 0 14 0;
#X connect 13 0 12 1;
#X connect 14 0 15 0;
#X connect 14 1 11 0;
#X connect 14 1 18 0;
#X connect 15 0 16 0;
#X connect 15 0 17 0;
#X connect 16 0 10 0;
#X connect 17 0 13 0;
#X connect 18 0 13 0;
#X connect 19 0 4 0;
#X connect 20 0 21 0;
#X connect 21 0 22 0;
#X connect 22 0 41 0;
#X connect 23 0 22 1;
#X connect 24 0 23 0;
#X connect 25 0 26 0;
#X connect 26 0 13 0;
#X connect 27 0 5 0;
#X connect 28 0 5 0;
#X connect 29 0 5 0;
#X connect 30 0 5 0;
#X connect 31 0 6 0;
#X connect 32 0 6 0;
#X connect 33 0 34 0;
#X connect 35 0 34 0;
#X connect 36 0 34 0;
#X connect 37 0 34 0;
#X connect 38 0 34 0;
#X connect 39 0 31 0;
#X connect 39 0 40 0;
#X connect 40 0 32 0;
#X connect 41 0 6 0;
#X restore 239 468 pd ledsZone2;
#X msg 589 113 print 1000l\$1r\$2g\$3bd;
#X obj 590 20 bng 15 250 50 0 empty empty empty 17 7 0 10 -262144 -1
-1;
#X msg 590 79 0 0 0;
#X obj 590 140 s ledsMens;
#X obj 659 48 bng 15 250 50 0 empty empty empty 17 7 0 10 -262144 -1
-1;
#X msg 659 80 255 255 255;
#N canvas 1 57 820 478 VitorStuff 0;
#X obj 38 106 vsl 30 200 0 127 0 0 red empty empty 0 -9 0 10 -258113
-1 -1 0 1;
#X obj 72 106 vsl 30 200 0 127 0 0 green empty empty 0 -9 0 10 -4034
-1 -1 0 1;
#X obj 107 106 vsl 30 200 0 127 0 0 blue empty empty 0 -9 0 10 -4160
-1 -1 0 1;
#X obj 161 257 tgl 50 0 random empty empty 17 7 0 10 -159808 -1 -1
0 1;
#X obj 160 109 vsl 50 130 0 30 0 0 vel empty empty 0 -9 0 10 -159808
-1 -1 0 1;
#X obj 274 266 tgl 50 0 efRedPink empty empty 17 7 0 10 -258113 -1
-1 0 1;
#N canvas 543 127 730 527 effects 0;
#X obj 30 322 s ledsMens;
#X obj 63 169 line 0 100;
#X floatatom 25 232 5 0 0 0 - - -, f 5;
#X obj 63 195 int;
#X msg 146 124 stop;
#X obj 32 62 metro 10000;
#X obj 56 88 delay 5000;
#X obj 32 34 tgl 15 0 empty efRedPink empty 17 7 0 10 -262144 -1 -1
0 1;
#X obj 219 315 s ledsMens;
#X obj 226 168 line 0 100;
#X floatatom 188 231 5 0 0 0 - - -, f 5;
#X obj 226 194 int;
#X msg 309 123 stop;
#X obj 195 61 metro 10000;
#X obj 219 87 delay 5000;
#X obj 195 33 tgl 15 0 empty efGreenBlue empty 17 7 0 10 -262144 -1
-1 0 1;
#X msg 195 124 75 5000;
#X msg 256 124 0 5000;
#X obj 359 311 s ledsMens;
#X obj 398 167 line 0 100;
#X floatatom 360 230 5 0 0 0 - - -, f 5;
#X obj 398 193 int;
#X msg 481 122 stop;
#X obj 367 60 metro 10000;
#X obj 391 86 delay 5000;
#X obj 367 32 tgl 15 0 empty efGreenYellow empty 17 7 0 10 -262144
-1 -1 0 1;
#X msg 428 123 0 5000;
#X msg 367 123 150 5000;
#X obj 563 545 s ledsMens;
#X obj 564 483 pack f f;
#X obj 581 447 t b f;
#X obj 521 394 r group;
#X floatatom 498 427 5 0 0 0 - - -, f 5;
#X floatatom 509 510 5 0 0 0 - - -, f 5;
#X obj 591 368 line 0 100;
#X obj 591 394 int;
#X msg 674 323 stop;
#X obj 560 261 metro 10000;
#X obj 584 287 delay 5000;
#X msg 621 324 0 5000;
#X msg 560 324 150 5000;
#X floatatom 623 427 5 0 0 0 - - -, f 5;
#X msg 563 519 print \$1s0r255r\$2bd;
#X msg 93 125 0 5000;
#X msg 32 125 100 5000;
#X msg 358 257 print 1000l\$1r255g0bd;
#X msg 193 260 print 1000l0r255g\$1bd;
#X msg 30 261 print 1000l255r0g\$1bd;
#X connect 1 0 3 0;
#X connect 2 0 47 0;
#X connect 3 0 2 0;
#X connect 4 0 1 0;
#X connect 5 0 44 0;
#X connect 5 0 6 0;
#X connect 6 0 43 0;
#X connect 7 0 5 0;
#X connect 9 0 11 0;
#X connect 10 0 46 0;
#X connect 11 0 10 0;
#X connect 12 0 9 0;
#X connect 13 0 16 0;
#X connect 13 0 14 0;
#X connect 14 0 17 0;
#X connect 15 0 13 0;
#X connect 16 0 9 0;
#X connect 17 0 9 0;
#X connect 19 0 21 0;
#X connect 20 0 45 0;
#X connect 21 0 20 0;
#X connect 22 0 19 0;
#X connect 23 0 27 0;
#X connect 23 0 24 0;
#X connect 24 0 26 0;
#X connect 25 0 23 0;
#X connect 26 0 19 0;
#X connect 27 0 19 0;
#X connect 29 0 33 0;
#X connect 29 0 42 0;
#X connect 30 0 29 0;
#X connect 30 1 29 1;
#X connect 31 0 32 0;
#X connect 31 0 29 0;
#X connect 34 0 35 0;
#X connect 35 0 30 0;
#X connect 35 0 41 0;
#X connect 36 0 34 0;
#X connect 37 0 40 0;
#X connect 37 0 38 0;
#X connect 38 0 39 0;
#X connect 39 0 34 0;
#X connect 40 0 34 0;
#X connect 42 0 28 0;
#X connect 43 0 1 0;
#X connect 44 0 1 0;
#X connect 45 0 18 0;
#X connect 46 0 8 0;
#X connect 47 0 0 0;
#X restore 202 52 pd effects;
#X obj 273 127 tgl 50 0 efGreenBlue empty empty 17 7 0 10 -4032 -1
-1 0 1;
#X obj 274 196 tgl 50 0 efGreenYellow empty empty 17 7 0 10 -257985
-1 -1 0 1;
#X obj 39 29 bng 59 250 50 0 del empty empty 17 7 0 10 -1 -1 -1;
#X obj 274 59 tgl 50 0 efGreenInt empty empty 17 7 0 10 -204786 -1
-1 0 1;
#X text 341 77 pulsar verde;
#X text 341 140 verde a azul;
#X text 342 210 verde a amarelo;
#X text 349 283 cor de rosa;
#X restore 585 174 pd VitorStuff;
#N canvas 718 120 335 578 ledsZone3 0;
#X obj 58 471 s ledsMens;
#X obj 83 -76 inlet;
#X obj 87 -53 unpack f f f;
#X floatatom 57 -20 5 0 0 0 - - -, f 5;
#X obj 101 -19 > 0;
#X obj 101 12 sel 1 0;
#X obj 161 351 line 0 100;
#X floatatom 123 414 5 0 0 0 - - -, f 5;
#X obj 161 377 int;
#X msg 244 306 stop;
#X obj 130 216 tgl 15 0 empty efGreenInt empty 17 7 0 10 -262144 -1
-1 0 1;
#X msg 130 307 255 2000;
#X obj 154 270 delay 2000;
#X obj 130 244 metro 4000;
#X msg 190 307 75 2000;
#X msg 178 120 1;
#X obj 114 50 spigot;
#X obj 180 25 tgl 15 0 empty empty empty 17 7 0 10 -262144 -1 -1 1
1;
#X obj 141 88 t b b;
#X obj 105 125 delay 5000;
#X msg 114 152 0;
#X msg 80 153 1;
#X msg 215 121 0;
#X msg 181 -7 1;
#X obj 62 240 sel 0;
#X obj 50 263 delay 2000;
#X msg 61 391 0 200;
#X obj 51 348 spigot;
#X obj 101 348 tgl 15 0 empty empty empty 17 7 0 10 -262144 -1 -1 1
1;
#X obj 97 323 == 0;
#X obj 242 -1 loadbang;
#X msg 238 21 1;
#X msg 59 444 print 0s0r\$1g0bd;
#X connect 1 0 2 0;
#X connect 2 0 3 0;
#X connect 2 0 4 0;
#X connect 4 0 5 0;
#X connect 5 0 16 0;
#X connect 6 0 8 0;
#X connect 7 0 32 0;
#X connect 8 0 7 0;
#X connect 9 0 6 0;
#X connect 10 0 13 0;
#X connect 10 0 24 0;
#X connect 10 0 29 0;
#X connect 11 0 6 0;
#X connect 12 0 14 0;
#X connect 13 0 11 0;
#X connect 13 0 12 0;
#X connect 14 0 6 0;
#X connect 15 0 10 0;
#X connect 16 0 18 0;
#X connect 17 0 16 1;
#X connect 18 0 19 0;
#X connect 18 1 15 0;
#X connect 18 1 22 0;
#X connect 19 0 20 0;
#X connect 19 0 21 0;
#X connect 20 0 10 0;
#X connect 21 0 17 0;
#X connect 22 0 17 0;
#X connect 23 0 5 0;
#X connect 24 0 25 0;
#X connect 25 0 27 0;
#X connect 26 0 6 0;
#X connect 27 0 26 0;
#X connect 28 0 27 1;
#X connect 29 0 28 0;
#X connect 30 0 31 0;
#X connect 31 0 17 0;
#X connect 32 0 0 0;
#X restore 243 352 pd ledsZone3;
#N canvas 824 101 407 648 matConn 0;
#X msg 160 500 devices;
#X text 40 450 Apagar;
#X obj 171 359 t b f;
#X obj 209 359 t b f;
#X obj 209 336 * 2;
#X obj 171 336 * 2;
#X obj 145 359 * 2;
#X obj 124 272 r red;
#X obj 164 271 r green;
#X obj 217 271 r blue;
#X obj 125 298 int;
#X obj 164 298 int;
#X obj 216 298 int;
#X obj 148 117 vsl 15 128 0 127 0 0 empty empty empty 0 -9 0 10 -262144
-1 -1 0 1;
#X obj 169 117 vsl 15 128 0 127 0 0 empty empty empty 0 -9 0 10 -262144
-1 -1 0 1;
#X obj 188 117 vsl 15 128 0 127 0 0 empty empty empty 0 -9 0 10 -262144
-1 -1 0 1;
#X obj 57 81 random 127;
#X obj 126 80 random 127;
#X obj 203 79 random 127;
#X obj 139 2 r random;
#X obj 201 -12 r vel;
#X floatatom 256 52 5 0 0 0 - - -, f 5;
#X obj 201 11 int;
#X msg 42 500 print 1000L0R0G0BD;
#X obj 49 53 metro 500;
#X obj 118 52 metro 500;
#X obj 195 51 metro 500;
#X obj 148 408 pack f f f;
#X msg 148 430 print 1000l\$1R\$2G\$3Bd;
#X obj 62 576 r ledsMens;
#X obj 42 472 r del;
#X floatatom 104 388 5 0 0 0 - - -, f 5;
#X floatatom 69 388 5 0 0 0 - - -, f 5;
#X floatatom 35 389 5 0 0 0 - - -, f 5;
#X msg 272 505 open 32;
#X msg 337 506 close;
#X obj 148 579 comport 32 115200;
#X obj 327 115 inlet;
#X obj 330 170 tgl 15 1 empty empty empty 17 7 0 10 -262144 -1 -1 1
1;
#X obj 331 205 sel 1 0;
#X connect 0 0 36 0;
#X connect 2 0 27 0;
#X connect 2 1 27 1;
#X connect 3 0 27 0;
#X connect 3 1 27 2;
#X connect 4 0 3 0;
#X connect 4 0 31 0;
#X connect 5 0 2 0;
#X connect 5 0 32 0;
#X connect 6 0 27 0;
#X connect 6 0 33 0;
#X connect 7 0 10 0;
#X connect 8 0 11 0;
#X connect 9 0 12 0;
#X connect 10 0 6 0;
#X connect 11 0 5 0;
#X connect 12 0 4 0;
#X connect 13 0 10 0;
#X connect 14 0 11 0;
#X connect 15 0 12 0;
#X connect 16 0 13 0;
#X connect 17 0 14 0;
#X connect 18 0 15 0;
#X connect 19 0 24 0;
#X connect 19 0 25 0;
#X connect 19 0 26 0;
#X connect 20 0 22 0;
#X connect 22 0 21 0;
#X connect 22 0 24 1;
#X connect 22 0 25 1;
#X connect 22 0 26 1;
#X connect 23 0 36 0;
#X connect 24 0 16 0;
#X connect 25 0 17 0;
#X connect 26 0 18 0;
#X connect 27 0 28 0;
#X connect 28 0 36 0;
#X connect 29 0 36 0;
#X connect 30 0 23 0;
#X connect 34 0 36 0;
#X connect 35 0 36 0;
#X connect 37 0 38 0;
#X connect 38 0 39 0;
#X connect 39 0 34 0;
#X connect 39 1 35 0;
#X restore 212 77 pd matConn;
#X obj 214 55 tgl 15 0 empty empty empty 17 7 0 10 -262144 -1 -1 0
1;
#X obj 383 28 inlet;
#X obj 589 48 t b b;
#X obj 514 80 s apagaTudo;
#X obj 191 280 bng 15 250 50 0 empty empty empty 17 7 0 10 -262144
-1 -1;
#X connect 0 0 1 0;
#X connect 1 0 7 0;
#X connect 1 1 7 1;
#X connect 2 0 5 0;
#X connect 3 0 2 1;
#X connect 4 0 26 0;
#X connect 6 0 7 0;
#X connect 7 0 12 0;
#X connect 8 0 11 0;
#X connect 9 0 10 0;
#X connect 10 0 7 0;
#X connect 10 1 7 3;
#X connect 11 0 7 0;
#X connect 11 1 7 2;
#X connect 12 0 14 0;
#X connect 12 1 2 0;
#X connect 14 0 15 0;
#X connect 14 1 16 0;
#X connect 14 2 24 0;
#X connect 14 3 30 0;
#X connect 17 0 20 0;
#X connect 18 0 28 0;
#X connect 19 0 17 0;
#X connect 21 0 22 0;
#X connect 22 0 17 0;
#X connect 26 0 25 0;
#X connect 27 0 3 0;
#X connect 28 0 29 0;
#X connect 28 1 19 0;
#X restore 326 577 pd outStuff;
#N canvas 116 226 536 478 imgIn 0;
#X floatatom 411 72 5 0 0 0 - - -, f 5;
#X floatatom 471 69 5 0 0 0 - - -, f 5;
#X obj 411 117 pack f f;
#X obj 455 91 t b f;
#X obj 410 140 s imgSize;
#X text 107 78 gemhead for rgb;
#X text 227 77 and for depth;
#X text 114 159 rgb;
#X msg 37 129 info;
#X obj 26 59 r \$0-prop;
#X obj 99 58 tgl 15 0 empty depthImgOnOff empty 17 7 0 10 -262144 -1
-1 0 1;
#X obj 220 59 tgl 15 0 empty depthImgOnOff empty 17 7 0 10 -262144
-1 -1 0 1;
#X text 166 159 Depth;
#X obj 90 190 s RGBimg;
#X text 21 110 get serial;
#X obj 171 186 pix_crop 32 0 580 440;
#X obj 100 136 pix_freenect 0 1 1;
#X obj 99 98 gemhead 48;
#X obj 220 97 gemhead 49;
#N canvas 283 227 844 360 properties 0;
#X obj 11 67 cnv 15 140 220 empty empty empty 20 12 0 14 -204800 -66577
0;
#X msg 16 251 led \$1;
#X obj 16 132 vradio 15 1 0 6 empty empty empty 0 -8 0 10 -262144 -1
-1 5;
#X floatatom 16 228 5 0 0 0 - - -, f 5;
#X msg 93 251 angle \$1;
#X obj 93 96 vsl 15 128 -30 30 0 0 empty empty empty 0 -9 0 10 -262144
-1 -1 6350 1;
#X floatatom 93 232 5 0 0 0 - - -, f 5;
#X msg 105 70 0;
#X text 32 146 GREEN;
#X text 33 130 OFF;
#X text 32 162 RED;
#X text 32 177 YELLOW;
#X text 32 192 BLINK_GR;
#X text 32 206 BLINK_R_Y;
#X obj 166 53 cnv 15 320 120 empty empty empty 20 12 0 14 -4034 -66577
0;
#X obj 177 90 vradio 15 1 0 2 empty empty empty 0 -8 0 10 -262144 -1
-1 1;
#X floatatom 177 125 5 0 0 0 - - -, f 5;
#X obj 242 91 vradio 15 1 0 2 empty empty empty 0 -8 0 10 -262144 -1
-1 1;
#X floatatom 242 126 5 0 0 0 - - -, f 5;
#X msg 177 146 rgb \$1;
#X msg 242 147 depth \$1;
#X text 169 53 activate/deactivate streams;
#X text 171 67 save cpu power by just activating necessary streams!
;
#X obj 494 30 cnv 15 315 120 empty empty empty 20 12 0 14 -232576 -66577
0;
#X obj 497 69 vradio 15 1 0 2 empty empty empty 0 -8 0 10 -262144 -1
-1 0;
#X floatatom 497 104 5 0 0 0 - - -, f 5;
#X msg 497 124 depth_output \$1;
#X text 644 92 b = 0 \, a = 0;
#X text 3 24 properties for pix_freenect;
#X text 515 7 DEPTH OUTPUT;
#X text 188 32 STREAMS;
#X text 13 48 LED \, ANGLE;
#X text 643 79 r->3 msbits \, g ->8 lsbits;
#X text 516 82 Raw YUV (2 bytes) |;
#X text 516 67 Raw RGBA -> 11 bit output in r&g channel;
#X obj 166 213 cnv 15 520 120 empty empty empty 20 12 0 14 -261682
-66577 0;
#X obj 178 236 vradio 15 1 0 3 empty empty empty 0 -8 0 10 -262144
-1 -1 1;
#X floatatom 178 285 5 0 0 0 - - -, f 5;
#X obj 366 247 vradio 15 1 0 2 empty empty empty 0 -8 0 10 -262144
-1 -1 0;
#X floatatom 366 282 5 0 0 0 - - -, f 5;
#X msg 178 306 depth_mode \$1;
#X text 199 264 11bit raw;
#X text 501 33 set depth output colorspace;
#X text 169 216 set output formats;
#X text 199 248 mm aligned to rgb (16 bit);
#X text 199 234 mm unaligned (16 bit);
#X msg 366 303 video_mode \$1;
#X text 386 245 RGB;
#X text 385 261 IR;
#X obj 16 277 s \$0-prop;
#X obj 177 171 s \$0-prop;
#X obj 497 150 s \$0-prop;
#X obj 178 335 s \$0-prop;
#X obj 482 241 vradio 15 1 0 3 empty empty empty 0 -8 0 10 -262144
-1 -1 1;
#X floatatom 482 289 5 0 0 0 - - -, f 5;
#X msg 482 308 resolution \$1;
#X text 502 255 MEDIUM (default);
#X text 479 218 RGB RESOLUTION;
#X text 502 270 HIGH (restart rgb stream!);
#X text 502 240 LOW (not displaying correctly);
#N canvas 1 55 450 300 notes 0;
#X text 22 24 HIGH Resolution IR works just if depth stream is shut
down!!;
#X restore 704 216 pd notes;
#X msg 356 210 1;
#X obj 93 46 r kinAngle;
#X obj 355 187 r BB;
#X connect 1 0 49 0;
#X connect 2 0 3 0;
#X connect 3 0 1 0;
#X connect 4 0 49 0;
#X connect 5 0 6 0;
#X connect 6 0 4 0;
#X connect 7 0 5 0;
#X connect 15 0 16 0;
#X connect 16 0 19 0;
#X connect 17 0 18 0;
#X connect 18 0 20 0;
#X connect 19 0 50 0;
#X connect 20 0 50 0;
#X connect 24 0 25 0;
#X connect 25 0 26 0;
#X connect 26 0 51 0;
#X connect 36 0 37 0;
#X connect 37 0 40 0;
#X connect 38 0 39 0;
#X connect 39 0 46 0;
#X connect 40 0 52 0;
#X connect 46 0 52 0;
#X connect 53 0 54 0;
#X connect 54 0 55 0;
#X connect 55 0 52 0;
#X connect 61 0 53 0;
#X connect 61 0 36 0;
#X connect 62 0 5 0;
#X connect 63 0 61 0;
#X restore 221 29 pd properties;
#X obj 128 320 pix_depth2rgba 5000;
#X obj 176 247 tgl 15 0 empty empty mode 17 7 0 10 -262144 -1 -1 0
1;
#X obj 219 298 nbx 5 14 -1e+37 1e+37 0 0 empty empty hi_thresh 0 -8
0 10 -262144 -1 -1 0 256;
#X obj 283 296 nbx 5 14 -1e+37 1e+37 0 0 empty empty lo_thresh 0 -8
0 10 -262144 -1 -1 0 256;
#N canvas 741 511 569 230 thresholds 0;
#X obj 69 177 outlet;
#X msg 31 63 lo_thresh \$1;
#X msg 104 123 hi_thresh \$1;
#X floatatom 31 46 5 0 0 0 - - -, f 5;
#X floatatom 104 106 5 0 0 0 - - -, f 5;
#X text 102 18 low threshold default to 10.1;
#X obj 104 85 r hi_thresh;
#X text 161 158 .this normalizes the color gradient from lo_thresh
to hi_thresh;
#X text 162 186 .pixel which are out of bounds are zeroes;
#X text 106 33 same as fourth inlet \, set by 2nd arg;
#X text 186 111 hi threshold same as third inlet \, set by 1st arg
\, default 8000;
#X obj 29 22 r lo_thresh;
#X connect 1 0 0 0;
#X connect 2 0 0 0;
#X connect 3 0 1 0;
#X connect 4 0 2 0;
#X connect 6 0 4 0;
#X connect 11 0 3 0;
#X restore 43 244 pd thresholds;
#X text 224 239 0: 11 bit raw kinect;
#X text 223 253 1 (default): 16 bit mm depth;
#X obj 126 27 s \$0-prop;
#X obj 92 418 s Dimg;
#X obj 126 352 t a a;
#X obj 159 388 pix_gray;
#X obj 158 418 s Dimg_g;
#X connect 0 0 2 0;
#X connect 1 0 3 0;
#X connect 2 0 4 0;
#X connect 3 0 2 0;
#X connect 3 1 2 1;
#X connect 8 0 16 0;
#X connect 9 0 16 0;
#X connect 10 0 17 0;
#X connect 11 0 18 0;
#X connect 15 0 20 0;
#X connect 16 0 13 0;
#X connect 16 1 15 0;
#X connect 17 0 16 0;
#X connect 18 0 16 1;
#X connect 20 0 29 0;
#X connect 21 0 20 1;
#X connect 22 0 20 2;
#X connect 23 0 20 3;
#X connect 24 0 20 0;
#X connect 29 0 28 0;
#X connect 29 1 30 0;
#X connect 30 0 31 0;
#X restore 27 72 pd imgIn;
#X obj 123 71 vsl 30 128 0 10000 0 0 lo_thresh empty lo_thresh 0 -9
0 10 -203904 -1 -1 0 1;
#X obj 191 72 vsl 30 128 0 10000 0 0 hi_thresh empty hi_thresh 0 -9
0 10 -261234 -1 -1 5080 1;
#X obj 266 74 vsl 15 128 -30 30 0 0 kinAngle empty angle 0 -9 0 10
-262144 -1 -1 6350 1;
#X msg 289 74 0;
#X floatatom 191 213 5 0 0 0 - - -, f 5;
#X obj 326 546 tgl 15 0 empty empty empty 17 7 0 10 -262144 -1 -1 0
1;
#X msg 99 378 bang;
#X obj 40 425 r RGBimg;
#X floatatom 350 82 5 0 0 0 - - -, f 5;
#X obj 352 56 r L;
#X obj 25 145 r Dimg;
#X obj 57 446 r Dimg;
#X obj 102 492 hradio 15 1 0 4 empty empty empty 0 -8 0 10 -262144
-1 -1 0;
#X obj 106 462 r Dimg_g;
#X obj 20 490 mux . . . .;
#X obj 99 347 metro 100;
#X obj 78 349 tgl 15 0 empty empty empty 17 7 0 10 -262144 -1 -1 0
1;
#X obj 409 56 r V;
#X floatatom 410 83 5 0 0 0 - - -, f 5;
#X msg 45 240 dimen \$1 \$2;
#X obj 21 265 pix_resize 13 7;
#X obj 68 216 r imgSize;
#X msg 139 239 dimen 13 7;
#X obj 19 313 pix_gray;
#X obj 24 609 rectangle 5.333 4;
#X obj 321 140 cnv 15 180 150 empty empty empty 20 12 0 14 -233017
-66577 0;
#X obj 327 209 s X;
#X obj 430 225 s Y;
#X obj 330 148 hsl 128 15 0 1 0 0 empty empty empty -2 -8 0 10 -262144
-1 -1 0 1;
#X obj 471 153 vsl 15 128 0 1 0 0 empty empty empty 0 -9 0 10 -262144
-1 -1 0 1;
#X floatatom 475 294 5 0 0 0 - - -, f 5;
#X obj 389 544 tgl 15 0 empty empty empty 17 7 0 10 -262144 -1 -1 0
1;
#X text 306 525 send2leds;
#X text 406 552 print data (WATCH OUT! \; can crash if speed is high)
;
#X msg 190 35 4000;
#X msg 533 116 0.15;
#X msg 601 113 0.22;
#X msg 671 115 0.4;
#X text 259 602 mesmo comportanmento nas tres zonas \; pisca suavemente
e desliga depois de 5000 msec;
#X obj 655 10 loadbang;
#X text 488 402 TODO change the way image is scanned;
#X text 486 414 pix_dump instead of pix_Data?;
#X obj 271 324 cnv 15 200 170 empty empty empty 20 12 0 14 -204800
-66577 0;
#N canvas 93 190 621 433 varre 0;
#X obj 70 11 r click;
#X obj 73 94 f;
#X obj 105 93 + 1;
#X obj 64 132 mod 7;
#X obj 207 236 f;
#X obj 239 235 + 1;
#X msg 129 219 0;
#X msg 172 236 0;
#X obj 211 265 mod 13;
#X obj 214 290 sel 12;
#X obj 37 102 bng 15 250 50 0 empty empty empty 17 7 0 10 -262144 -1
-1;
#X obj 87 336 s LINHA;
#X obj 162 339 s COLUNA;
#X obj 322 76 r LINHA;
#X obj 326 196 s Y;
#X obj 387 76 r COLUNA;
#X obj 406 197 s X;
#X obj 112 268 r zeraVarre;
#X obj 325 140 * 0.142;
#X obj 325 168 + 0.071;
#X obj 395 137 * 0.076;
#X obj 395 167 + 0.038;
#X obj 149 163 sel 6;
#X obj 150 196 t b b;
#X obj 141 12 inlet;
#X obj 77 48 spigot;
#X obj 138 43 tgl 15 0 empty empty empty 17 7 0 10 -262144 -1 -1 0
1;
#X obj 540 17 r imgSize;
#X obj 540 45 unpack f f;
#X obj 563 138 / 2;
#X obj 490 132 / 2;
#X floatatom 554 181 5 0 0 0 - - -, f 5;
#X floatatom 481 179 5 0 0 0 - - -, f 5;
#X msg 458 17 1;
#X obj 561 100 / 7;
#X obj 488 97 / 13;
#X obj 137 70 r speed;
#X obj 77 70 speedlim;
#X obj 214 72 r imgSize;
#X obj 214 100 unpack f f;
#X obj 213 127 t f f;
#X obj 209 151 - 1;
#X obj 291 240 t f f;
#X obj 287 264 - 1;
#X obj 418 292 bng 15 250 50 0 empty empty empty 17 7 0 10 -262144
-1 -1;
#X obj 417 322 s zeraVarre;
#X connect 0 0 25 0;
#X connect 1 0 2 0;
#X connect 1 0 3 0;
#X connect 2 0 1 1;
#X connect 3 0 11 0;
#X connect 3 0 22 0;
#X connect 4 0 5 0;
#X connect 4 0 8 0;
#X connect 4 0 12 0;
#X connect 5 0 4 1;
#X connect 6 0 1 1;
#X connect 7 0 4 1;
#X connect 8 0 9 0;
#X connect 9 0 7 0;
#X connect 10 0 1 0;
#X connect 13 0 18 0;
#X connect 15 0 20 0;
#X connect 17 0 6 0;
#X connect 17 0 7 0;
#X connect 18 0 19 0;
#X connect 19 0 14 0;
#X connect 20 0 21 0;
#X connect 21 0 16 0;
#X connect 22 0 23 0;
#X connect 23 0 6 0;
#X connect 23 1 4 0;
#X connect 24 0 26 0;
#X connect 25 0 37 0;
#X connect 26 0 25 1;
#X connect 27 0 28 0;
#X connect 28 0 35 1;
#X connect 28 1 34 1;
#X connect 29 0 19 1;
#X connect 30 0 21 1;
#X connect 33 0 34 0;
#X connect 33 0 35 0;
#X connect 34 0 18 1;
#X connect 34 0 29 0;
#X connect 34 0 31 0;
#X connect 35 0 20 1;
#X connect 35 0 30 0;
#X connect 35 0 32 0;
#X connect 36 0 37 1;
#X connect 37 0 1 0;
#X connect 38 0 39 0;
#X connect 39 0 40 0;
#X connect 39 1 42 0;
#X connect 40 0 3 1;
#X connect 40 1 41 0;
#X connect 41 0 22 1;
#X connect 42 0 8 1;
#X connect 42 1 43 0;
#X connect 43 0 9 1;
#X connect 44 0 45 0;
#X restore 279 471 pd varre;
#X obj 278 413 tgl 50 0 empty empty empty 17 7 0 10 -257985 -1 -1 0
1;
#X text 294 413 ON;
#X obj 416 448 tgl 15 0 empty empty empty 17 7 0 10 -262144 -1 -1 0
1;
#X text 410 431 show;
#X obj 316 368 hsl 128 15 0 1000 0 0 speed empty speed -2 -8 0 10 -262144
-1 -1 0 1;
#N canvas 388 168 606 478 show 0;
#X obj 63 249 translateXYZ;
#X obj 59 367 color;
#X obj 55 398 circle 0.2;
#X obj 63 142 gemhead 51;
#X obj 82 174 r X;
#X obj 158 173 r Y;
#X obj 67 95 tgl 15 0 empty empty empty 17 7 0 10 -262144 -1 -1 0 1
;
#X obj 179 18 inlet;
#X obj 410 145 r R-arvore;
#X obj 449 227 r R-zona1;
#X floatatom 461 253 5 0 0 0 - - -, f 5;
#X floatatom 435 168 5 0 0 0 - - -, f 5;
#X floatatom 496 334 5 0 0 0 - - -, f 5;
#X obj 479 310 r R-zona2;
#X obj 335 93 gemhead 51;
#X obj 340 67 tgl 15 0 empty empty empty 17 7 0 10 -262144 -1 -1 0
1;
#X obj 335 209 circle;
#X msg 363 153 0 0 1;
#X obj 334 185 color;
#X msg 297 265 draw line;
#X obj 392 184 * 4;
#X obj 340 327 circle;
#X obj 339 299 color;
#X obj 340 403 circle;
#X obj 342 373 color;
#X msg 375 353 1 0.5 1;
#X msg 375 277 0.3 1 1;
#X msg 196 346 1 0.2 0.5;
#X obj 375 239 r BB;
#X obj 439 284 * 8;
#X obj 468 357 * 8;
#X obj 156 196 * 8;
#X obj 160 220 - 4;
#X obj 80 197 * 10.6666;
#X obj 84 221 - 5.333;
#X obj 171 270 r L;
#X msg 230 369 0.7 0.8 0.2;
#X obj 169 299 sel 0 1 2 3;
#X msg 241 394 0.4 0.2 0.5;
#X msg 156 336 1 0 0;
#X connect 0 0 1 0;
#X connect 1 0 2 0;
#X connect 3 0 0 0;
#X connect 4 0 33 0;
#X connect 5 0 31 0;
#X connect 6 0 3 0;
#X connect 7 0 6 0;
#X connect 7 0 15 0;
#X connect 8 0 11 0;
#X connect 8 0 20 0;
#X connect 9 0 10 0;
#X connect 9 0 29 0;
#X connect 13 0 12 0;
#X connect 13 0 30 0;
#X connect 14 0 18 0;
#X connect 15 0 14 0;
#X connect 16 0 22 0;
#X connect 17 0 18 1;
#X connect 18 0 16 0;
#X connect 19 0 16 0;
#X connect 19 0 21 0;
#X connect 19 0 23 0;
#X connect 20 0 16 1;
#X connect 21 0 24 0;
#X connect 22 0 21 0;
#X connect 24 0 23 0;
#X connect 25 0 24 1;
#X connect 26 0 22 1;
#X connect 27 0 1 1;
#X connect 28 0 19 0;
#X connect 28 0 17 0;
#X connect 28 0 26 0;
#X connect 28 0 25 0;
#X connect 29 0 21 1;
#X connect 30 0 23 1;
#X connect 31 0 32 0;
#X connect 32 0 0 2;
#X connect 33 0 34 0;
#X connect 34 0 0 1;
#X connect 35 0 37 0;
#X connect 36 0 1 1;
#X connect 37 0 39 0;
#X connect 37 1 27 0;
#X connect 37 2 36 0;
#X connect 37 3 38 0;
#X connect 38 0 1 1;
#X connect 39 0 1 1;
#X restore 415 472 pd show;
#X floatatom 295 389 5 0 0 0 - - -, f 5;
#X msg 293 332 10;
#X floatatom 331 337 5 0 0 0 - - -, f 5;
#X connect 1 0 0 0;
#X connect 2 0 48 0;
#X connect 3 0 0 0;
#X connect 4 0 6 0;
#X connect 5 2 11 0;
#X connect 6 0 38 0;
#X connect 6 1 5 1;
#X connect 7 0 5 0;
#X connect 7 1 5 3;
#X connect 8 0 5 0;
#X connect 8 1 5 2;
#X connect 9 0 8 0;
#X connect 10 0 7 0;
#X connect 13 0 14 0;
#X connect 15 0 2 0;
#X connect 17 0 15 0;
#X connect 18 0 19 0;
#X connect 20 0 21 0;
#X connect 25 0 28 0;
#X connect 27 0 26 0;
#X connect 29 0 22 0;
#X connect 30 0 5 0;
#X connect 31 0 38 1;
#X connect 33 0 32 0;
#X connect 34 0 44 0;
#X connect 35 0 38 2;
#X connect 36 0 38 4;
#X connect 37 0 38 3;
#X connect 38 0 2 0;
#X connect 39 0 5 0;
#X connect 40 0 39 0;
#X connect 41 0 42 0;
#X connect 43 0 44 0;
#X connect 44 0 47 0;
#X connect 45 0 43 0;
#X connect 46 0 44 0;
#X connect 47 0 4 0;
#X connect 52 0 50 0;
#X connect 53 0 54 0;
#X connect 53 0 51 0;
#X connect 55 0 22 1;
#X connect 58 0 25 0;
#X connect 59 0 13 0;
#X connect 60 0 18 0;
#X connect 61 0 20 0;
#X connect 63 0 59 0;
#X connect 63 0 60 0;
#X connect 63 0 61 0;
#X connect 63 0 58 0;
#X connect 63 0 27 0;
#X connect 68 0 67 0;
#X connect 70 0 73 0;
#X connect 72 0 74 0;
#X connect 75 0 72 0;
#X connect 75 0 76 0;
