#N canvas 23 77 749 663 10;
#X obj 476 91 gemwin;
#X msg 476 41 dimen 640 480 \, create \, 1;
#X obj 25 578 pix_texture;
#X msg 506 67 0 \, destroy;
#X obj 19 355 alpha;
#N canvas 211 311 524 456 distFromTree 0;
#X obj 75 24 r X;
#X obj 362 23 r Y;
#X floatatom 18 126 5 0 0 0 - - -, f 5;
#X obj 75 93 expr sqrt( ($f1 - 0.5)*($f1 - 0.5) + ($f2 - 0.5)*($f2
- 0.5) );
#X obj 362 49 t b f;
#X obj 79 130 t f f f;
#X obj 308 217 > 0.05;
#X obj 349 188 r R-arvore;
#X obj 137 252 > 0.3;
#X obj 203 227 r R-zona1;
#X obj 26 258 > 0.6;
#X obj 27 286 tgl 15 0 empty empty empty 17 7 0 10 -262144 -1 -1 0
1;
#X obj 147 285 tgl 15 0 empty empty empty 17 7 0 10 -262144 -1 -1 0
1;
#X floatatom 209 256 5 0 0 0 - - -, f 5;
#X obj 67 235 r R-zona2;
#X obj 262 310 tgl 15 0 empty empty empty 17 7 0 10 -262144 -1 -1 0
1;
#X text -1 93 Distance \; from Center;
#X floatatom 75 263 5 0 0 0 - - -, f 5;
#X floatatom 370 223 5 0 0 0 - - -, f 5;
#X obj 142 372 expr $f1 + $f2 + $f3;
#X obj 127 415 s L;
#X text 170 417 sends out the label of the zone;
#X connect 0 0 3 0;
#X connect 1 0 4 0;
#X connect 3 0 2 0;
#X connect 3 0 5 0;
#X connect 4 0 3 0;
#X connect 4 1 3 1;
#X connect 5 0 10 0;
#X connect 5 1 8 0;
#X connect 5 2 6 0;
#X connect 6 0 15 0;
#X connect 7 0 6 1;
#X connect 7 0 18 0;
#X connect 8 0 12 0;
#X connect 9 0 8 1;
#X connect 9 0 13 0;
#X connect 10 0 11 0;
#X connect 11 0 19 2;
#X connect 12 0 19 1;
#X connect 14 0 10 1;
#X connect 14 0 17 0;
#X connect 15 0 19 0;
#X connect 19 0 20 0;
#X restore 581 369 pd distFromTree;
#X obj 538 154 vsl 15 128 0 1 0 0 R-arvore R-arvore-r R-arvore 0 -9
0 10 -262144 -1 -1 1905 1;
#X floatatom 538 303 5 0 0 0 - - -, f 5;
#X msg 38 555 quality 0;
#N canvas 440 220 338 270 init 0;
#X floatatom 185 102 5 0 0 0 - - -, f 5;
#X floatatom 245 99 5 0 0 0 - - -, f 5;
#X obj 185 147 pack f f;
#X obj 229 121 t b f;
#X obj 184 170 s imgSize;
#X msg 187 69 7;
#X msg 249 62 5;
#X msg 41 82 \; BB bang \; speed 20 \; R-arvore-r 0.15 \; R-zona1-r
0.22 \; R-zona2-r 0.5 \; imgSize 7 5 \;;
#X obj 48 30 loadbang;
#X connect 0 0 2 0;
#X connect 1 0 3 0;
#X connect 2 0 4 0;
#X connect 3 0 2 0;
#X connect 3 1 2 1;
#X connect 5 0 0 0;
#X connect 6 0 1 0;
#X connect 8 0 7 0;
#X restore 30 49 pd init;
#X obj 50 527 r BB;
#X obj 601 153 vsl 15 128 0 0.7 0 0 R-zona1 R-zona1-r R-zona1 0 -9
0 10 -262144 -1 -1 3991 1;
#X floatatom 602 302 5 0 0 0 - - -, f 5;
#X obj 665 151 vsl 15 128 0 0.7 0 0 R-zona2 R-zona2-r R-zona2 0 -9
0 10 -262144 -1 -1 9071 1;
#X floatatom 665 300 5 0 0 0 - - -, f 5;
#N canvas 21 82 743 660 outStuff 0;
#X msg 510 460 devices;
#X obj 496 431 r ledsMens;
#X msg 517 484 close;
#X msg 580 484 open \$1;
#X obj 580 434 hradio 15 1 0 8 empty empty empty 0 -8 0 10 -262144
-1 -1 2;
#X floatatom 655 475 5 0 0 0 - - -, f 5;
#X obj 494 520 comport 32 115200;
#N canvas 618 142 481 509 animaRandom 0;
#X obj 251 319 t b f;
#X obj 289 319 t b f;
#X obj 289 296 * 2;
#X obj 251 296 * 2;
#X obj 225 319 * 2;
#X obj 204 232 r red;
#X obj 244 231 r green;
#X obj 297 231 r blue;
#X obj 205 258 int;
#X obj 244 258 int;
#X obj 296 258 int;
#X obj 148 117 vsl 15 128 0 127 0 0 empty empty empty 0 -9 0 10 -262144
-1 -1 0 1;
#X obj 169 117 vsl 15 128 0 127 0 0 empty empty empty 0 -9 0 10 -262144
-1 -1 0 1;
#X obj 188 117 vsl 15 128 0 127 0 0 empty empty empty 0 -9 0 10 -262144
-1 -1 0 1;
#X obj 57 81 random 127;
#X obj 126 80 random 127;
#X obj 203 79 random 127;
#X obj 139 2 r random;
#X obj 201 -12 r vel;
#X floatatom 256 52 5 0 0 0 - - -, f 5;
#X obj 201 11 int;
#X obj 49 53 metro 500;
#X obj 118 52 metro 500;
#X obj 195 51 metro 500;
#X obj 228 368 pack f f f;
#X msg 228 390 print 1000l\$1R\$2G\$3Bd;
#X floatatom 184 348 5 0 0 0 - - -, f 5;
#X floatatom 149 348 5 0 0 0 - - -, f 5;
#X floatatom 115 349 5 0 0 0 - - -, f 5;
#X connect 0 0 24 0;
#X connect 0 1 24 1;
#X connect 1 0 24 0;
#X connect 1 1 24 2;
#X connect 2 0 1 0;
#X connect 2 0 26 0;
#X connect 3 0 0 0;
#X connect 3 0 27 0;
#X connect 4 0 24 0;
#X connect 4 0 28 0;
#X connect 5 0 8 0;
#X connect 6 0 9 0;
#X connect 7 0 10 0;
#X connect 8 0 4 0;
#X connect 9 0 3 0;
#X connect 10 0 2 0;
#X connect 11 0 8 0;
#X connect 12 0 9 0;
#X connect 13 0 10 0;
#X connect 14 0 11 0;
#X connect 15 0 12 0;
#X connect 16 0 13 0;
#X connect 17 0 21 0;
#X connect 17 0 22 0;
#X connect 17 0 23 0;
#X connect 18 0 20 0;
#X connect 20 0 19 0;
#X connect 20 0 21 1;
#X connect 20 0 22 1;
#X connect 20 0 23 1;
#X connect 21 0 14 0;
#X connect 22 0 15 0;
#X connect 23 0 16 0;
#X connect 24 0 25 0;
#X restore 514 57 pd animaRandom;
#N canvas 837 125 302 306 animaFreak 0;
#X obj 32 15 inlet;
#X obj 101 81 r V;
#X obj 102 116 sel 1 0;
#X obj 142 196 line;
#X floatatom 174 222 5 0 0 0 - - -, f 5;
#X obj 137 82 tgl 15 0 empty empty empty 17 7 0 10 -262144 -1 -1 0
1;
#X msg 95 152 1;
#X msg 141 153 0 60000;
#X obj 140 244 sel 0;
#X text -21 53 ativa animation freak quando nao ha interação durante
1min;
#X connect 1 0 2 0;
#X connect 2 0 6 0;
#X connect 2 1 7 0;
#X connect 3 0 4 0;
#X connect 3 0 8 0;
#X connect 5 0 2 0;
#X connect 6 0 3 0;
#X connect 7 0 3 0;
#X restore 498 81 pd animaFreak;
#N canvas 1 61 649 414 pixLeds 0;
#X obj 21 38 pixLed 0 17;
#X obj 151 37 pixLed 1 9;
#X obj 275 40 pixLed 2 10;
#X obj 392 40 pixLed 3 11;
#X obj 534 41 pixLed 4 18;
#X obj 21 94 pixLed 5 25;
#X obj 149 96 pixLed 6 24;
#X obj 275 100 pixLed 7 23;
#X obj 391 99 pixLed 8 16;
#X obj 535 102 pixLed 9 15;
#X obj 26 163 pixLed 10 8;
#X obj 156 169 pixLed 11 1;
#X obj 279 169 pixLed 12 2;
#X obj 387 171 pixLed 13 3;
#X obj 530 166 pixLed 14 4;
#X obj 33 245 pixLed 15 5;
#X obj 160 251 pixLed 16 12;
#X obj 276 253 pixLed 17 19;
#X obj 391 253 pixLed 18 26;
#X obj 538 250 pixLed 19 33;
#X obj 31 340 pixLed 20 32;
#X obj 163 346 pixLed 21 31;
#X obj 278 348 pixLed 22 30;
#X obj 395 346 pixLed 23 29;
#X obj 543 347 pixLed 24 22;
#X restore 508 31 pd pixLeds;
#N canvas 1 54 355 300 debugLValXY 0;
#X obj 148 84 t b f;
#X obj 178 207 spigot;
#X obj 213 175 tgl 15 0 empty empty empty 17 7 0 10 -262144 -1 -1 0
1;
#X obj 123 35 r L;
#X obj 148 139 pack f f f f;
#X obj 194 57 r X;
#X obj 230 58 r Y;
#X obj 238 86 t b f;
#X obj 190 86 t b f;
#X obj 163 181 t l l;
#X obj 147 54 r Val;
#X obj 174 235 print L Val X Y;
#X connect 0 0 4 0;
#X connect 0 1 4 1;
#X connect 1 0 11 0;
#X connect 2 0 1 1;
#X connect 3 0 4 0;
#X connect 4 0 9 0;
#X connect 5 0 8 0;
#X connect 6 0 7 0;
#X connect 7 0 4 0;
#X connect 7 1 4 3;
#X connect 8 0 4 0;
#X connect 8 1 4 2;
#X connect 9 1 1 0;
#X connect 10 0 0 0;
#X restore 67 571 pd debugLValXY;
#X text 53 11 cada pixel controla um grupo de leds separadamente;
#X obj 426 487 spigot;
#X obj 461 416 tgl 15 0 empty empty empty 17 7 0 10 -262144 -1 -1 0
1;
#N canvas 1 54 450 300 animaInativo 0;
#X obj 262 89 inlet;
#X restore 295 590 pd animaInativo;
#N canvas 53 270 450 300 animaFeliz 0;
#X obj 280 76 inlet;
#X restore 401 588 pd animaFeliz;
#X obj 414 23 r listPix;
#X obj 381 109 list append;
#X obj 381 143 s pixVals;
#X msg 382 79 0;
#X obj 415 53 t b l;
#X obj 55 60 table pixVals 35;
#X obj 233 248 tabread pixVals;
#X obj 502 181 list;
#X msg 252 189 0 \, 1;
#X obj 249 280 print;
#X connect 0 0 6 0;
#X connect 1 0 12 0;
#X connect 2 0 6 0;
#X connect 3 0 6 0;
#X connect 4 0 3 0;
#X connect 4 0 5 0;
#X connect 12 0 6 0;
#X connect 13 0 12 1;
#X connect 16 0 20 0;
#X connect 17 0 18 0;
#X connect 19 0 17 0;
#X connect 20 0 19 0;
#X connect 20 1 17 1;
#X connect 22 0 25 0;
#X connect 24 0 22 0;
#X restore 326 577 pd outStuff;
#N canvas 334 239 444 488 imgIn 0;
#X text 107 78 gemhead for rgb;
#X text 227 77 and for depth;
#X text 114 159 rgb;
#X msg 37 129 info;
#X obj 26 59 r \$0-prop;
#X obj 99 58 tgl 15 0 empty depthImgOnOff empty 17 7 0 10 -262144 -1
-1 1 1;
#X obj 220 59 tgl 15 0 empty depthImgOnOff empty 17 7 0 10 -262144
-1 -1 1 1;
#X text 166 159 Depth;
#X obj 90 190 s RGBimg;
#X text 21 110 get serial;
#X obj 171 186 pix_crop 32 0 580 440;
#X obj 100 136 pix_freenect 0 1 1;
#X obj 99 98 gemhead 48;
#X obj 220 97 gemhead 49;
#N canvas 283 227 844 360 properties 0;
#X obj 11 67 cnv 15 140 220 empty empty empty 20 12 0 14 -204800 -66577
0;
#X msg 16 251 led \$1;
#X obj 16 132 vradio 15 1 0 6 empty empty empty 0 -8 0 10 -262144 -1
-1 0;
#X floatatom 16 228 5 0 0 0 - - -, f 5;
#X msg 93 251 angle \$1;
#X obj 93 96 vsl 15 128 -30 30 0 0 empty empty empty 0 -9 0 10 -262144
-1 -1 6350 1;
#X floatatom 93 232 5 0 0 0 - - -, f 5;
#X msg 105 70 0;
#X text 32 146 GREEN;
#X text 33 130 OFF;
#X text 32 162 RED;
#X text 32 177 YELLOW;
#X text 32 192 BLINK_GR;
#X text 32 206 BLINK_R_Y;
#X obj 166 53 cnv 15 320 120 empty empty empty 20 12 0 14 -4034 -66577
0;
#X obj 177 90 vradio 15 1 0 2 empty empty empty 0 -8 0 10 -262144 -1
-1 0;
#X floatatom 177 125 5 0 0 0 - - -, f 5;
#X obj 242 91 vradio 15 1 0 2 empty empty empty 0 -8 0 10 -262144 -1
-1 0;
#X floatatom 242 126 5 0 0 0 - - -, f 5;
#X msg 177 146 rgb \$1;
#X msg 242 147 depth \$1;
#X text 169 53 activate/deactivate streams;
#X text 171 67 save cpu power by just activating necessary streams!
;
#X obj 494 30 cnv 15 315 120 empty empty empty 20 12 0 14 -232576 -66577
0;
#X obj 497 69 vradio 15 1 0 2 empty empty empty 0 -8 0 10 -262144 -1
-1 0;
#X floatatom 497 104 5 0 0 0 - - -, f 5;
#X msg 497 124 depth_output \$1;
#X text 644 92 b = 0 \, a = 0;
#X text 3 24 properties for pix_freenect;
#X text 515 7 DEPTH OUTPUT;
#X text 188 32 STREAMS;
#X text 13 48 LED \, ANGLE;
#X text 643 79 r->3 msbits \, g ->8 lsbits;
#X text 516 82 Raw YUV (2 bytes) |;
#X text 516 67 Raw RGBA -> 11 bit output in r&g channel;
#X obj 166 213 cnv 15 520 120 empty empty empty 20 12 0 14 -261682
-66577 0;
#X obj 178 236 vradio 15 1 0 3 empty empty empty 0 -8 0 10 -262144
-1 -1 1;
#X floatatom 178 285 5 0 0 0 - - -, f 5;
#X obj 366 247 vradio 15 1 0 2 empty empty empty 0 -8 0 10 -262144
-1 -1 0;
#X floatatom 366 282 5 0 0 0 - - -, f 5;
#X msg 178 306 depth_mode \$1;
#X text 199 264 11bit raw;
#X text 501 33 set depth output colorspace;
#X text 169 216 set output formats;
#X text 199 248 mm aligned to rgb (16 bit);
#X text 199 234 mm unaligned (16 bit);
#X msg 366 303 video_mode \$1;
#X text 386 245 RGB;
#X text 385 261 IR;
#X obj 16 277 s \$0-prop;
#X obj 177 171 s \$0-prop;
#X obj 497 150 s \$0-prop;
#X obj 178 335 s \$0-prop;
#X obj 482 241 vradio 15 1 0 3 empty empty empty 0 -8 0 10 -262144
-1 -1 1;
#X floatatom 482 289 5 0 0 0 - - -, f 5;
#X msg 482 308 resolution \$1;
#X text 502 255 MEDIUM (default);
#X text 479 218 RGB RESOLUTION;
#X text 502 270 HIGH (restart rgb stream!);
#X text 502 240 LOW (not displaying correctly);
#N canvas 1 55 450 300 notes 0;
#X text 22 24 HIGH Resolution IR works just if depth stream is shut
down!!;
#X restore 704 216 pd notes;
#X msg 356 210 1;
#X obj 93 46 r kinAngle;
#X obj 355 187 r BB;
#X connect 1 0 49 0;
#X connect 2 0 3 0;
#X connect 3 0 1 0;
#X connect 4 0 49 0;
#X connect 5 0 6 0;
#X connect 6 0 4 0;
#X connect 7 0 5 0;
#X connect 15 0 16 0;
#X connect 16 0 19 0;
#X connect 17 0 18 0;
#X connect 18 0 20 0;
#X connect 19 0 50 0;
#X connect 20 0 50 0;
#X connect 24 0 25 0;
#X connect 25 0 26 0;
#X connect 26 0 51 0;
#X connect 36 0 37 0;
#X connect 37 0 40 0;
#X connect 38 0 39 0;
#X connect 39 0 46 0;
#X connect 40 0 52 0;
#X connect 46 0 52 0;
#X connect 53 0 54 0;
#X connect 54 0 55 0;
#X connect 55 0 52 0;
#X connect 61 0 53 0;
#X connect 61 0 36 0;
#X connect 62 0 5 0;
#X connect 63 0 61 0;
#X restore 221 29 pd properties;
#X obj 128 320 pix_depth2rgba 5000;
#X obj 176 247 tgl 15 0 empty empty mode 17 7 0 10 -262144 -1 -1 0
1;
#X obj 219 298 nbx 5 14 -1e+37 1e+37 0 0 empty empty hi_thresh 0 -8
0 10 -262144 -1 -1 0 256;
#X obj 283 296 nbx 5 14 -1e+37 1e+37 0 0 empty empty lo_thresh 0 -8
0 10 -262144 -1 -1 0 256;
#N canvas 741 511 569 230 thresholds 0;
#X obj 69 177 outlet;
#X msg 31 63 lo_thresh \$1;
#X msg 104 123 hi_thresh \$1;
#X floatatom 31 46 5 0 0 0 - - -, f 5;
#X floatatom 104 106 5 0 0 0 - - -, f 5;
#X text 102 18 low threshold default to 10.1;
#X obj 104 85 r hi_thresh;
#X text 161 158 .this normalizes the color gradient from lo_thresh
to hi_thresh;
#X text 162 186 .pixel which are out of bounds are zeroes;
#X text 106 33 same as fourth inlet \, set by 2nd arg;
#X text 186 111 hi threshold same as third inlet \, set by 1st arg
\, default 8000;
#X obj 29 22 r lo_thresh;
#X connect 1 0 0 0;
#X connect 2 0 0 0;
#X connect 3 0 1 0;
#X connect 4 0 2 0;
#X connect 6 0 4 0;
#X connect 11 0 3 0;
#X restore 43 244 pd thresholds;
#X text 224 239 0: 11 bit raw kinect;
#X text 223 253 1 (default): 16 bit mm depth;
#X obj 126 27 s \$0-prop;
#X obj 92 418 s Dimg;
#X obj 126 352 t a a;
#X obj 159 388 pix_gray;
#X obj 158 418 s Dimg_g;
#X connect 3 0 11 0;
#X connect 4 0 11 0;
#X connect 5 0 12 0;
#X connect 6 0 13 0;
#X connect 10 0 15 0;
#X connect 11 0 8 0;
#X connect 11 1 10 0;
#X connect 12 0 11 0;
#X connect 13 0 11 1;
#X connect 15 0 24 0;
#X connect 16 0 15 1;
#X connect 17 0 15 2;
#X connect 18 0 15 3;
#X connect 19 0 15 0;
#X connect 24 0 23 0;
#X connect 24 1 25 0;
#X connect 25 0 26 0;
#X restore 27 72 pd imgIn;
#X obj 123 71 vsl 30 128 0 10000 0 0 lo_thresh empty lo_thresh 0 -9
0 10 -203904 -1 -1 0 1;
#X obj 194 73 vsl 30 128 0 10000 0 0 hi_thresh empty hi_thresh 0 -9
0 10 -261234 -1 -1 5080 1;
#X obj 266 74 vsl 15 128 -30 30 0 0 kinAngle empty angle 0 -9 0 10
-262144 -1 -1 6350 1;
#X msg 271 40 0;
#X floatatom 191 213 5 0 0 0 - - -, f 5;
#X obj 326 546 tgl 15 0 empty empty empty 17 7 0 10 -262144 -1 -1 0
1;
#X floatatom 350 82 5 0 0 0 - - -, f 5;
#X obj 352 56 r L;
#X obj 21 117 r Dimg;
#X obj 57 446 r Dimg;
#X obj 160 492 hradio 15 1 0 4 empty empty empty 0 -8 0 10 -262144
-1 -1 0;
#X obj 106 462 r Dimg_g;
#X floatatom 410 83 5 0 0 0 - - -, f 5;
#X msg 40 219 dimen \$1 \$2;
#X obj 40 195 r imgSize;
#X obj 19 313 pix_gray;
#X obj 24 609 rectangle 5.333 4;
#X obj 321 140 cnv 15 180 150 empty empty empty 20 12 0 14 -233017
-66577 0;
#X obj 327 209 s X;
#X obj 430 225 s Y;
#X obj 330 148 hsl 128 15 0 1 0 0 empty empty empty -2 -8 0 10 -262144
-1 -1 0 1;
#X obj 471 153 vsl 15 128 0 1 0 0 empty empty empty 0 -9 0 10 -262144
-1 -1 0 1;
#X floatatom 475 294 5 0 0 0 - - -, f 5;
#X obj 389 544 tgl 15 0 empty empty empty 17 7 0 10 -262144 -1 -1 0
1;
#X text 306 525 send2leds;
#X text 406 552 print data (WATCH OUT! \; can crash if speed is high)
;
#X msg 190 35 4000;
#X text 323 600 mesmo comportanmento nas tres zonas \; pisca suavemente
e desliga depois de 5000 msec;
#X obj 267 13 loadbang;
#X text 539 435 pix_dump instead of pix_Data?;
#X obj 300 326 cnv 15 200 170 empty empty empty 20 12 0 14 -204800
-66577 0;
#N canvas 129 602 271 157 varre 0;
#X obj 94 29 inlet;
#X obj 92 52 tgl 15 0 empty empty empty 17 7 0 10 -262144 -1 -1 1 1
;
#X obj 120 107 s click;
#X obj 119 75 metro 1;
#X obj 162 45 r speed;
#X connect 0 0 1 0;
#X connect 1 0 3 0;
#X connect 3 0 2 0;
#X connect 4 0 3 1;
#X restore 302 471 pd varre;
#X obj 301 413 tgl 50 0 empty empty empty 17 7 0 10 -257985 -1 -1 1
1;
#X text 317 413 ON;
#X obj 439 448 tgl 15 0 empty empty empty 17 7 0 10 -262144 -1 -1 0
1;
#X text 433 431 show;
#X obj 339 368 hsl 128 15 0 1000 0 0 speed empty speed -2 -8 0 10 -262144
-1 -1 970 1;
#N canvas 73 154 606 478 show 0;
#X obj 63 249 translateXYZ;
#X obj 59 367 color;
#X obj 55 398 circle 0.2;
#X obj 63 142 gemhead 51;
#X obj 82 174 r X;
#X obj 158 173 r Y;
#X obj 67 95 tgl 15 0 empty empty empty 17 7 0 10 -262144 -1 -1 0 1
;
#X obj 179 18 inlet;
#X obj 410 145 r R-arvore;
#X obj 449 227 r R-zona1;
#X floatatom 461 253 5 0 0 0 - - -, f 5;
#X floatatom 435 168 5 0 0 0 - - -, f 5;
#X floatatom 496 334 5 0 0 0 - - -, f 5;
#X obj 479 310 r R-zona2;
#X obj 335 93 gemhead 51;
#X obj 340 67 tgl 15 0 empty empty empty 17 7 0 10 -262144 -1 -1 0
1;
#X obj 335 209 circle;
#X msg 363 153 0 0 1;
#X obj 334 185 color;
#X msg 297 265 draw line;
#X obj 392 184 * 4;
#X obj 340 327 circle;
#X obj 339 299 color;
#X obj 340 403 circle;
#X obj 342 373 color;
#X msg 375 353 1 0.5 1;
#X msg 375 277 0.3 1 1;
#X msg 196 346 1 0.2 0.5;
#X obj 375 239 r BB;
#X obj 439 284 * 8;
#X obj 468 357 * 8;
#X obj 156 196 * 8;
#X obj 160 220 - 4;
#X obj 80 197 * 10.6666;
#X obj 84 221 - 5.333;
#X obj 171 270 r L;
#X msg 230 369 0.7 0.8 0.2;
#X obj 169 299 sel 0 1 2 3;
#X msg 241 394 0.4 0.2 0.5;
#X msg 156 336 1 0 0;
#X connect 0 0 1 0;
#X connect 1 0 2 0;
#X connect 3 0 0 0;
#X connect 4 0 33 0;
#X connect 5 0 31 0;
#X connect 6 0 3 0;
#X connect 7 0 6 0;
#X connect 7 0 15 0;
#X connect 8 0 11 0;
#X connect 8 0 20 0;
#X connect 9 0 10 0;
#X connect 9 0 29 0;
#X connect 13 0 12 0;
#X connect 13 0 30 0;
#X connect 14 0 18 0;
#X connect 15 0 14 0;
#X connect 16 0 22 0;
#X connect 17 0 18 1;
#X connect 18 0 16 0;
#X connect 19 0 16 0;
#X connect 19 0 21 0;
#X connect 19 0 23 0;
#X connect 20 0 16 1;
#X connect 21 0 24 0;
#X connect 22 0 21 0;
#X connect 24 0 23 0;
#X connect 25 0 24 1;
#X connect 26 0 22 1;
#X connect 27 0 1 1;
#X connect 28 0 19 0;
#X connect 28 0 17 0;
#X connect 28 0 26 0;
#X connect 28 0 25 0;
#X connect 29 0 21 1;
#X connect 30 0 23 1;
#X connect 31 0 32 0;
#X connect 32 0 0 2;
#X connect 33 0 34 0;
#X connect 34 0 0 1;
#X connect 35 0 37 0;
#X connect 36 0 1 1;
#X connect 37 0 39 0;
#X connect 37 1 27 0;
#X connect 37 2 36 0;
#X connect 37 3 38 0;
#X connect 38 0 1 1;
#X connect 39 0 1 1;
#X restore 438 472 pd show;
#X floatatom 318 389 5 0 0 0 - - -, f 5;
#X msg 316 332 10;
#X floatatom 354 337 5 0 0 0 - - -, f 5;
#X text 539 400 TODO change the way image is scanned;
#X obj 40 425 r RGBimg;
#X obj 20 490 LabIO_demux-4 . . . .;
#X msg 412 334 100;
#X obj 409 56 r Val;
#X obj 21 276 pix_resize 7 5;
#X obj 221 434 pix_dump;
#X obj 20 390 t a a a;
#X obj 222 547 s listPix;
#N canvas 1 54 450 300 debugReadPix 0;
#X obj 4 89 pix_set 7 5;
#X msg 63 38 grey;
#X obj 5 39 gemhead;
#X msg 81 68 1 0 0 0 0 0 0 0 0 0 0 0 0 0 0 0 0 1 0 0 0 0 0 0 0 0 0
0 0 0 0 0 0 0 1;
#X connect 1 0 0 0;
#X connect 2 0 0 0;
#X connect 3 0 0 1;
#X restore 607 91 pd debugReadPix;
#X obj 208 356 r click;
#X msg 168 346 0;
#X connect 1 0 0 0;
#X connect 2 0 33 0;
#X connect 3 0 0 0;
#X connect 4 0 65 0;
#X connect 6 0 7 0;
#X connect 8 0 2 0;
#X connect 10 0 8 0;
#X connect 11 0 12 0;
#X connect 13 0 14 0;
#X connect 18 0 21 0;
#X connect 20 0 19 0;
#X connect 24 0 23 0;
#X connect 25 0 63 0;
#X connect 26 0 60 2;
#X connect 27 0 60 4;
#X connect 28 0 60 3;
#X connect 30 0 63 0;
#X connect 31 0 30 0;
#X connect 32 0 4 0;
#X connect 37 0 35 0;
#X connect 38 0 39 0;
#X connect 38 0 36 0;
#X connect 43 0 18 0;
#X connect 45 0 43 0;
#X connect 45 0 20 0;
#X connect 49 0 48 0;
#X connect 51 0 54 0;
#X connect 53 0 55 0;
#X connect 56 0 53 0;
#X connect 56 0 57 0;
#X connect 59 0 60 1;
#X connect 60 0 2 0;
#X connect 61 0 53 0;
#X connect 62 0 29 0;
#X connect 63 0 32 0;
#X connect 64 1 66 0;
#X connect 65 0 60 0;
#X connect 65 2 64 0;
#X connect 68 0 64 0;
