#N canvas 112 223 457 492 10;
#X obj 142 417 s ledsMens;
#N canvas 133 59 1230 708 animaLigado 0;
#X obj 566 417 hsv2rgb;
#X obj 609 168 vsl 15 128 0 1 0 0 empty empty empty 0 -9 0 10 -262144
-1 -1 4332 1;
#X obj 693 172 vsl 15 128 0 1 0 0 empty empty empty 0 -9 0 10 -262144
-1 -1 10136 1;
#X obj 772 163 vsl 15 128 0 1 0 0 empty empty empty 0 -9 0 10 -262144
-1 -1 10198 1;
#X obj 564 386 pack f f f;
#X obj 568 448 unpack f f f;
#X text 637 277 Hue;
#X text 719 280 Sat;
#X text 796 282 Val;
#X msg 77 53 0.333 1 0.501;
#X text 230 49 green;
#X obj 80 88 unpack f f f;
#X obj 75 116 s H;
#X obj 128 126 s S;
#X obj 179 130 s V;
#X obj 603 37 r H;
#X obj 705 44 r S;
#X obj 776 45 r V;
#X obj 608 130 line;
#X obj 691 130 line;
#X obj 778 126 line;
#X obj 75 200 unpack f f f;
#X obj 78 228 s H;
#X obj 130 231 s S;
#X obj 181 235 s V;
#X text 228 166 dark green;
#X msg 63 367 0.348 0.834 0.803;
#X obj 64 397 unpack f f f;
#X obj 59 425 s H;
#X obj 120 426 s S;
#X obj 180 429 s V;
#X text 261 366 forest green;
#X msg 57 465 0.333 0.756 0.803;
#X obj 59 498 unpack f f f;
#X obj 54 526 s H;
#X obj 115 527 s S;
#X obj 175 530 s V;
#X text 248 458 lime;
#X obj 381 63 tgl 15 0 empty empty empty 17 7 0 10 -262144 -1 -1 1
1;
#X obj 387 141 f;
#X obj 432 141 + 1;
#X floatatom 487 262 5 0 0 0 - - -, f 5;
#X obj 565 530 * 255;
#X obj 638 531 * 255;
#X obj 713 534 * 255;
#X obj 561 601 s red;
#X obj 627 603 s green;
#X obj 722 603 s blue;
#X obj 937 297 r red;
#X obj 1002 298 r green;
#X obj 1085 298 r blue;
#X obj 964 404 pack f f f;
#X obj 937 331 int;
#X obj 1088 328 int;
#X obj 1007 328 int;
#X msg 594 87 \$1 2000;
#X msg 690 93 \$1 2000;
#X msg 778 95 \$1 2000;
#X obj 952 92 vsl 15 128 0 1 0 0 empty empty empty 0 -9 0 10 -262144
-1 -1 0 1;
#X obj 1037 89 vsl 15 128 0 1 0 0 empty empty empty 0 -9 0 10 -262144
-1 -1 0 1;
#X obj 1112 90 vsl 15 128 0 1 0 0 empty empty empty 0 -9 0 10 -262144
-1 -1 0 1;
#X obj 962 233 * 255;
#X obj 1035 234 * 255;
#X obj 1110 237 * 255;
#X obj 605 334 t b f;
#X msg 218 82 0.333 1 1;
#X obj 892 358 bng 15 250 50 0 empty empty empty 17 7 0 10 -262144
-1 -1;
#X msg 74 167 0.333 0.95 0.392;
#X obj 388 175 mod 4;
#X obj 383 305 sel 0 1 2 3;
#X obj 384 100 metro 2000;
#X obj 972 555 outlet;
#X obj 359 5 inlet;
#X obj 961 496 spigot;
#X text 1024 499 comment;
#X connect 0 0 5 0;
#X connect 1 0 4 0;
#X connect 2 0 4 1;
#X connect 3 0 4 2;
#X connect 4 0 0 0;
#X connect 5 0 42 0;
#X connect 5 1 43 0;
#X connect 5 2 44 0;
#X connect 9 0 11 0;
#X connect 11 0 12 0;
#X connect 11 1 13 0;
#X connect 11 2 14 0;
#X connect 15 0 55 0;
#X connect 16 0 56 0;
#X connect 17 0 57 0;
#X connect 18 0 1 0;
#X connect 19 0 2 0;
#X connect 20 0 3 0;
#X connect 21 0 22 0;
#X connect 21 1 23 0;
#X connect 21 2 24 0;
#X connect 26 0 27 0;
#X connect 27 0 28 0;
#X connect 27 1 29 0;
#X connect 27 2 30 0;
#X connect 32 0 33 0;
#X connect 33 0 34 0;
#X connect 33 1 35 0;
#X connect 33 2 36 0;
#X connect 38 0 70 0;
#X connect 38 0 73 1;
#X connect 39 0 40 0;
#X connect 39 0 68 0;
#X connect 40 0 39 1;
#X connect 42 0 45 0;
#X connect 43 0 46 0;
#X connect 44 0 47 0;
#X connect 48 0 52 0;
#X connect 49 0 54 0;
#X connect 50 0 53 0;
#X connect 51 0 73 0;
#X connect 52 0 51 0;
#X connect 53 0 51 2;
#X connect 54 0 51 1;
#X connect 55 0 18 0;
#X connect 56 0 19 0;
#X connect 57 0 20 0;
#X connect 58 0 61 0;
#X connect 59 0 62 0;
#X connect 60 0 63 0;
#X connect 61 0 52 0;
#X connect 62 0 54 0;
#X connect 63 0 53 0;
#X connect 64 0 4 0;
#X connect 64 1 4 1;
#X connect 65 0 11 0;
#X connect 66 0 51 0;
#X connect 67 0 21 0;
#X connect 68 0 41 0;
#X connect 68 0 69 0;
#X connect 69 0 9 0;
#X connect 69 1 67 0;
#X connect 69 2 26 0;
#X connect 69 3 32 0;
#X connect 70 0 39 0;
#X connect 72 0 38 0;
#X connect 73 0 71 0;
#X restore 116 257 pd animaLigado;
#N canvas 314 54 623 708 ativaLed 0;
#X obj 106 609 hsv2rgb;
#X obj 79 408 vsl 15 128 0 1 0 0 empty empty empty 0 -9 0 10 -262144
-1 -1 4000 1;
#X obj 202 402 vsl 15 128 0 1 0 0 empty empty empty 0 -9 0 10 -262144
-1 -1 10795 1;
#X obj 259 403 vsl 15 128 0 1 0 0 empty empty empty 0 -9 0 10 -262144
-1 -1 7620 1;
#X obj 127 554 t b f;
#X obj 103 586 pack f f f;
#X obj 200 557 t b f;
#X text 147 408 Hue;
#X text 223 407 Sat;
#X text 284 410 Val;
#X msg -52 352 0.15;
#X obj 312 354 line;
#X msg 364 315 1 200;
#X floatatom 165 498 5 0 0 0 - - -, f 5;
#X msg 34 354 0.85;
#X msg 434 316 0.6 1000;
#X obj 97 294 line;
#X msg 23 273 0.15;
#X obj 277 43 bng 15 250 50 0 empty empty empty 17 7 0 10 -262144 -1
-1;
#X obj 136 42 bng 15 250 50 0 empty empty empty 17 7 0 10 -262144 -1
-1;
#X obj 284 157 t b b;
#X obj 422 361 sin;
#X floatatom 426 402 5 0 0 0 - - -, f 5;
#X obj 427 278 line;
#X msg 483 148 14 500;
#X obj 311 76 t b b b;
#X obj 282 131 delay 700;
#X obj 378 131 delay 500;
#X obj 99 747 outlet;
#X obj 119 9 inlet liga;
#X obj 260 8 inlet desliga;
#X obj -42 324 loadbang;
#X floatatom 52 564 5 0 0 0 - - -, f 5;
#X obj 107 636 unpack f f f;
#X obj 101 662 * 255;
#X obj 99 682 int;
#X obj 142 664 * 255;
#X obj 140 684 int;
#X obj 182 665 * 255;
#X obj 180 685 int;
#X obj 105 715 pack f f f;
#X obj 106 113 t b b;
#X msg 86 262 0.315 1000;
#X msg 212 253 0;
#X connect 0 0 33 0;
#X connect 1 0 5 0;
#X connect 1 0 32 0;
#X connect 2 0 4 0;
#X connect 2 0 13 0;
#X connect 3 0 6 0;
#X connect 4 0 5 0;
#X connect 4 1 5 1;
#X connect 5 0 0 0;
#X connect 6 0 5 0;
#X connect 6 1 5 2;
#X connect 10 0 1 0;
#X connect 11 0 3 0;
#X connect 12 0 11 0;
#X connect 14 0 2 0;
#X connect 15 0 11 0;
#X connect 16 0 1 0;
#X connect 17 0 1 0;
#X connect 18 0 41 0;
#X connect 19 0 25 0;
#X connect 20 0 42 0;
#X connect 20 1 15 0;
#X connect 21 0 22 0;
#X connect 21 0 3 0;
#X connect 23 0 21 0;
#X connect 24 0 23 0;
#X connect 25 0 26 0;
#X connect 25 1 27 0;
#X connect 25 2 24 0;
#X connect 26 0 20 0;
#X connect 27 0 12 0;
#X connect 29 0 19 0;
#X connect 30 0 18 0;
#X connect 31 0 10 0;
#X connect 31 0 14 0;
#X connect 33 0 34 0;
#X connect 33 1 36 0;
#X connect 33 2 38 0;
#X connect 34 0 35 0;
#X connect 35 0 40 0;
#X connect 36 0 37 0;
#X connect 37 0 40 1;
#X connect 38 0 39 0;
#X connect 39 0 40 2;
#X connect 40 0 28 0;
#X connect 41 0 43 0;
#X connect 41 1 17 0;
#X connect 42 0 16 0;
#X connect 43 0 3 0;
#X restore 240 254 pd ativaLed;
#X obj 117 237 tgl 15 0 empty empty empty 17 7 0 10 -262144 -1 -1 1
1;
#X obj 233 226 bng 15 250 50 0 empty empty empty 17 7 0 10 -262144
-1 -1;
#X obj 305 226 bng 15 250 50 0 empty empty empty 17 7 0 10 -262144
-1 -1;
#X obj 90 65 tgl 15 0 empty empty empty 17 7 0 10 -262144 -1 -1 1 1
;
#X obj 124 105 sel 1 0;
#X obj 81 150 t b b;
#X obj 66 182 delay 1200;
#X msg 84 209 1;
#X msg 187 182 0;
#X obj 227 136 t b b b;
#X obj 245 187 delay 500;
#X msg 132 388 print \$1s\$2r\$3g\$4bd;
#X obj 128 361 list append;
#X obj 169 25 r V\$1;
#X floatatom 185 62 5 0 0 0 - - -, f 5;
#X obj 137 62 > 0;
#X text 68 3 recebe o V dum pixel para controlar a tira deste abs;
#X obj 136 334 \$1;
#X obj 123 84 change;
#X obj 165 299 t b l;
#X text 14 346 Led group Number;
#X obj 301 86 tabread pixVals;
#X obj 288 47 \$2;
#X obj 286 23 r click;
#X connect 1 0 22 0;
#X connect 2 0 22 0;
#X connect 3 0 1 0;
#X connect 4 0 2 0;
#X connect 5 0 2 1;
#X connect 7 0 8 0;
#X connect 7 1 12 0;
#X connect 8 0 9 0;
#X connect 8 1 2 0;
#X connect 9 0 10 0;
#X connect 10 0 3 0;
#X connect 11 0 3 0;
#X connect 12 0 13 0;
#X connect 12 2 11 0;
#X connect 13 0 2 1;
#X connect 14 0 0 0;
#X connect 15 0 14 0;
#X connect 16 0 17 0;
#X connect 17 0 18 0;
#X connect 18 0 6 0;
#X connect 18 0 21 0;
#X connect 20 0 15 0;
#X connect 21 0 7 0;
#X connect 22 0 20 0;
#X connect 22 1 15 1;
#X connect 24 0 17 0;
#X connect 25 0 24 0;
#X connect 26 0 25 0;
