#N canvas 1 65 624 289 10;
#X obj 190 19 r V;
#X floatatom 264 45 5 0 0 0 - - -, f 5;
#X obj 155 234 dac~;
#X obj 156 199 *~;
#X obj 114 136 osc~;
#X obj 310 132 vsl 15 128 0.03 3 0 0 empty empty empty 0 -9 0 10 -262144
-1 -1 3200 1;
#X msg 213 194 0;
#X obj 473 30 import mrpeach;
#X obj 470 82 udpreceive;
#X obj 157 108 noise~;
#X floatatom 214 128 5 0 0 0 - - -, f 5;
#X floatatom 253 128 5 0 0 0 - - -, f 5;
#X obj 114 60 * 100;
#X obj 247 87 expr $f1+$f2;
#X obj 390 34 vsl 15 128 0 127 0 0 empty empty empty 0 -9 0 10 -262144
-1 -1 8600 1;
#X obj 378 173 mtof;
#X floatatom 424 170 5 0 0 0 - - -, f 5;
#X obj 184 154 bp~ 100 600;
#X connect 0 0 1 0;
#X connect 0 0 12 0;
#X connect 3 0 2 0;
#X connect 3 0 2 1;
#X connect 5 0 3 1;
#X connect 6 0 3 1;
#X connect 9 0 17 0;
#X connect 10 0 17 1;
#X connect 11 0 17 2;
#X connect 12 0 4 0;
#X connect 12 0 13 0;
#X connect 13 0 10 0;
#X connect 14 0 15 0;
#X connect 14 0 16 0;
#X connect 15 0 13 1;
#X connect 17 0 3 0;
